# MagicaVoxel @ Ephtracy

# group
g Bush

# material
mtllib Bush.mtl
usemtl palette

# normals
vn -1 0 0
vn 1 0 0
vn 0 0 1
vn 0 0 -1
vn 0 -1 0
vn 0 1 0

# texcoords
vt 0.146484 0.5
vt 0.607422 0.5
vt 0.634766 0.5
vt 0.947266 0.5

# verts
v -1.5 0 2.5
v -1.5 0 1.5
v -1.5 0 0.5
v -1.5 0 -1.5
v -1.5 0 -2.5
v -1.5 0 -3.5
v -1.5 1 4.5
v -1.5 1 2.5
v -1.5 1 1.5
v -1.5 1 0.5
v -1.5 1 -1.5
v -1.5 1 -2.5
v -1.5 1 -3.5
v -1.5 1 -5.5
v -1.5 2 5.5
v -1.5 2 4.5
v -1.5 2 2.5
v -1.5 2 1.5
v -1.5 2 0.5
v -1.5 2 -1.5
v -1.5 2 -2.5
v -1.5 2 -3.5
v -1.5 3 1.5
v -1.5 3 0.5
v -1.5 3 -3.5
v -1.5 3 -5.5
v -1.5 4 5.5
v -1.5 4 3.5
v -1.5 4 -0.5
v -1.5 4 -1.5
v -1.5 4 -3.5
v -1.5 5 5.5
v -1.5 5 4.5
v -1.5 5 3.5
v -1.5 5 1.5
v -1.5 5 -0.5
v -1.5 5 -1.5
v -1.5 5 -2.5
v -1.5 5 -3.5
v -1.5 5 -5.5
v -1.5 6 4.5
v -1.5 6 3.5
v -1.5 6 2.5
v -1.5 6 1.5
v -1.5 6 -0.5
v -1.5 6 -2.5
v -1.5 6 -3.5
v -1.5 6 -4.5
v -1.5 6 -5.5
v -1.5 7 3.5
v -1.5 7 2.5
v -1.5 7 1.5
v -1.5 7 -1.5
v -1.5 7 -2.5
v -1.5 8 2.5
v -1.5 8 1.5
v -1.5 8 -0.5
v -1.5 8 -1.5
v -1.5 8 -4.5
v -1.5 9 1.5
v -1.5 9 -0.5
v 2.5 0 2.5
v 2.5 0 1.5
v 2.5 0 0.5
v 2.5 0 -1.5
v 2.5 0 -2.5
v 2.5 0 -3.5
v 2.5 1 4.5
v 2.5 1 2.5
v 2.5 1 1.5
v 2.5 1 0.5
v 2.5 1 -1.5
v 2.5 1 -2.5
v 2.5 1 -3.5
v 2.5 1 -5.5
v 2.5 2 5.5
v 2.5 2 4.5
v 2.5 2 2.5
v 2.5 2 1.5
v 2.5 2 0.5
v 2.5 2 -1.5
v 2.5 2 -2.5
v 2.5 2 -3.5
v 2.5 3 4.5
v 2.5 3 3.5
v 2.5 3 1.5
v 2.5 3 0.5
v 2.5 3 -3.5
v 2.5 3 -5.5
v 2.5 4 3.5
v 2.5 4 1.5
v 2.5 4 -1.5
v 2.5 4 -3.5
v 2.5 5 5.5
v 2.5 5 4.5
v 2.5 5 2.5
v 2.5 5 1.5
v 2.5 5 0.5
v 2.5 5 -2.5
v 2.5 5 -3.5
v 2.5 5 -5.5
v 2.5 6 4.5
v 2.5 6 3.5
v 2.5 6 2.5
v 2.5 6 1.5
v 2.5 6 0.5
v 2.5 6 -0.5
v 2.5 6 -2.5
v 2.5 6 -3.5
v 2.5 6 -4.5
v 2.5 6 -5.5
v 2.5 7 3.5
v 2.5 7 2.5
v 2.5 7 -1.5
v 2.5 7 -2.5
v 2.5 7 -3.5
v 2.5 7 -4.5
v 2.5 8 2.5
v 2.5 8 1.5
v 2.5 8 -0.5
v 2.5 8 -1.5
v 2.5 8 -3.5
v 2.5 8 -4.5
v 2.5 9 1.5
v 2.5 9 -0.5
v -1.5 2 5.5
v -1.5 4 5.5
v -1.5 5 5.5
v -0.5 2 5.5
v -0.5 4 5.5
v 0.5 2 5.5
v 0.5 3 5.5
v 1.5 2 5.5
v 1.5 3 5.5
v 2.5 2 5.5
v 2.5 5 5.5
v -1.5 1 4.5
v -1.5 2 4.5
v -1.5 5 4.5
v -1.5 6 4.5
v -0.5 2 4.5
v -0.5 5 4.5
v -0.5 6 4.5
v 0.5 2 4.5
v 1.5 2 4.5
v 1.5 5 4.5
v 1.5 6 4.5
v 2.5 1 4.5
v 2.5 2 4.5
v 2.5 5 4.5
v 2.5 6 4.5
v -1.5 6 3.5
v -1.5 7 3.5
v -0.5 6 3.5
v 1.5 6 3.5
v 2.5 6 3.5
v 2.5 7 3.5
v -1.5 0 2.5
v -1.5 1 2.5
v -1.5 7 2.5
v -1.5 8 2.5
v 1.5 7 2.5
v 1.5 8 2.5
v 2.5 0 2.5
v 2.5 1 2.5
v 2.5 7 2.5
v 2.5 8 2.5
v -1.5 8 1.5
v -1.5 9 1.5
v -0.5 8 1.5
v -0.5 9 1.5
v 0.5 8 1.5
v 0.5 9 1.5
v 1.5 8 1.5
v 2.5 8 1.5
v 2.5 9 1.5
v -1.5 0 0.5
v -1.5 1 0.5
v 2.5 0 0.5
v 2.5 1 0.5
v -1.5 0 -2.5
v -1.5 1 -2.5
v 2.5 0 -2.5
v 2.5 1 -2.5
v -1.5 0 1.5
v -1.5 1 1.5
v 2.5 0 1.5
v 2.5 1 1.5
v -1.5 8 -0.5
v -1.5 9 -0.5
v 2.5 8 -0.5
v 2.5 9 -0.5
v -1.5 0 -1.5
v -1.5 1 -1.5
v 2.5 0 -1.5
v 2.5 1 -1.5
v -1.5 0 -3.5
v -1.5 1 -3.5
v 2.5 0 -3.5
v 2.5 1 -3.5
v -1.5 6 -4.5
v -1.5 8 -4.5
v -0.5 6 -4.5
v -0.5 8 -4.5
v 0.5 6 -4.5
v 0.5 7 -4.5
v 2.5 6 -4.5
v 2.5 7 -4.5
v 2.5 8 -4.5
v -1.5 1 -5.5
v -1.5 3 -5.5
v -1.5 5 -5.5
v -1.5 6 -5.5
v -0.5 4 -5.5
v -0.5 5 -5.5
v 0.5 3 -5.5
v 0.5 4 -5.5
v 1.5 3 -5.5
v 1.5 5 -5.5
v 2.5 1 -5.5
v 2.5 3 -5.5
v 2.5 5 -5.5
v 2.5 6 -5.5
v -1.5 0 2.5
v 2.5 0 2.5
v -1.5 0 1.5
v 2.5 0 1.5
v -1.5 0 0.5
v 2.5 0 0.5
v -1.5 0 -1.5
v 2.5 0 -1.5
v -1.5 0 -2.5
v 2.5 0 -2.5
v -1.5 0 -3.5
v 2.5 0 -3.5
v -1.5 1 4.5
v 2.5 1 4.5
v -1.5 1 2.5
v 2.5 1 2.5
v -1.5 1 1.5
v 2.5 1 1.5
v -1.5 1 0.5
v 2.5 1 0.5
v -1.5 1 -1.5
v 2.5 1 -1.5
v -1.5 1 -2.5
v 2.5 1 -2.5
v -1.5 1 -3.5
v 2.5 1 -3.5
v -1.5 1 -5.5
v 2.5 1 -5.5
v -1.5 2 5.5
v -0.5 2 5.5
v 0.5 2 5.5
v 1.5 2 5.5
v 2.5 2 5.5
v -1.5 2 4.5
v -0.5 2 4.5
v 0.5 2 4.5
v 1.5 2 4.5
v 2.5 2 4.5
v -1.5 5 5.5
v 2.5 5 5.5
v -1.5 5 4.5
v -0.5 5 4.5
v 1.5 5 4.5
v 2.5 5 4.5
v -1.5 6 4.5
v -0.5 6 4.5
v 1.5 6 4.5
v 2.5 6 4.5
v -1.5 6 3.5
v -0.5 6 3.5
v 1.5 6 3.5
v 2.5 6 3.5
v -1.5 6 -4.5
v -0.5 6 -4.5
v 0.5 6 -4.5
v 2.5 6 -4.5
v -1.5 6 -5.5
v 2.5 6 -5.5
v -1.5 7 3.5
v 2.5 7 3.5
v -1.5 7 2.5
v 1.5 7 2.5
v 2.5 7 2.5
v -1.5 8 2.5
v 1.5 8 2.5
v 2.5 8 2.5
v -1.5 8 1.5
v -0.5 8 1.5
v 0.5 8 1.5
v 1.5 8 1.5
v 2.5 8 1.5
v -1.5 8 -0.5
v 2.5 8 -0.5
v -1.5 8 -1.5
v -0.5 8 -1.5
v 0.5 8 -1.5
v 2.5 8 -1.5
v -0.5 8 -2.5
v 0.5 8 -2.5
v -0.5 8 -3.5
v 2.5 8 -3.5
v -1.5 8 -4.5
v -0.5 8 -4.5
v 2.5 8 -4.5
v -1.5 9 1.5
v -0.5 9 1.5
v 0.5 9 1.5
v 2.5 9 1.5
v -0.5 9 0.5
v 0.5 9 0.5
v -1.5 9 -0.5
v 2.5 9 -0.5

# faces
f 8/4/1 2/4/1 1/4/1
f 9/4/1 2/4/1 8/4/1
f 10/4/1 4/4/1 3/4/1
f 11/4/1 4/4/1 10/4/1
f 12/4/1 6/4/1 5/4/1
f 13/4/1 6/4/1 12/4/1
f 16/2/1 8/2/1 7/2/1
f 17/4/1 9/4/1 8/4/1
f 17/2/1 8/2/1 16/2/1
f 18/3/1 10/3/1 9/3/1
f 18/4/1 9/4/1 17/4/1
f 19/4/1 11/4/1 10/4/1
f 19/3/1 10/3/1 18/3/1
f 20/2/1 12/2/1 11/2/1
f 20/4/1 11/4/1 19/4/1
f 21/4/1 13/4/1 12/4/1
f 21/2/1 12/2/1 20/2/1
f 22/2/1 14/2/1 13/2/1
f 22/4/1 13/4/1 21/4/1
f 23/3/1 18/3/1 17/3/1
f 23/3/1 16/3/1 15/3/1
f 23/3/1 17/3/1 16/3/1
f 23/3/1 19/3/1 18/3/1
f 24/2/1 20/2/1 19/2/1
f 24/3/1 19/3/1 23/3/1
f 25/2/1 14/2/1 22/2/1
f 25/3/1 22/3/1 21/3/1
f 25/3/1 21/3/1 20/3/1
f 26/2/1 14/2/1 25/2/1
f 27/3/1 23/3/1 15/3/1
f 28/3/1 23/3/1 27/3/1
f 29/2/1 20/2/1 24/2/1
f 29/2/1 24/2/1 23/2/1
f 30/3/1 25/3/1 20/3/1
f 30/2/1 20/2/1 29/2/1
f 30/3/1 26/3/1 25/3/1
f 31/3/1 26/3/1 30/3/1
f 32/2/1 28/2/1 27/2/1
f 33/2/1 28/2/1 32/2/1
f 34/3/1 23/3/1 28/3/1
f 34/2/1 28/2/1 33/2/1
f 35/2/1 29/2/1 23/2/1
f 35/3/1 23/3/1 34/3/1
f 36/3/1 30/3/1 29/3/1
f 36/2/1 29/2/1 35/2/1
f 37/2/1 31/2/1 30/2/1
f 37/3/1 30/3/1 36/3/1
f 38/2/1 31/2/1 37/2/1
f 39/3/1 26/3/1 31/3/1
f 39/2/1 31/2/1 38/2/1
f 40/3/1 26/3/1 39/3/1
f 41/3/1 34/3/1 33/3/1
f 41/3/1 35/3/1 34/3/1
f 41/3/1 36/3/1 35/3/1
f 42/3/1 36/3/1 41/3/1
f 43/3/1 36/3/1 42/3/1
f 44/3/1 36/3/1 43/3/1
f 45/2/1 38/2/1 37/2/1
f 45/3/1 36/3/1 44/3/1
f 45/2/1 37/2/1 36/2/1
f 46/3/1 39/3/1 38/3/1
f 46/2/1 38/2/1 45/2/1
f 47/2/1 40/2/1 39/2/1
f 47/3/1 39/3/1 46/3/1
f 48/2/1 40/2/1 47/2/1
f 49/2/1 40/2/1 48/2/1
f 50/2/1 43/2/1 42/2/1
f 51/3/1 44/3/1 43/3/1
f 51/2/1 43/2/1 50/2/1
f 52/2/1 45/2/1 44/2/1
f 52/3/1 44/3/1 51/3/1
f 53/3/1 46/3/1 45/3/1
f 54/2/1 48/2/1 47/2/1
f 54/3/1 46/3/1 53/3/1
f 54/2/1 47/2/1 46/2/1
f 55/2/1 52/2/1 51/2/1
f 56/2/1 45/2/1 52/2/1
f 56/2/1 52/2/1 55/2/1
f 57/3/1 53/3/1 45/3/1
f 57/2/1 45/2/1 56/2/1
f 58/2/1 54/2/1 53/2/1
f 58/3/1 53/3/1 57/3/1
f 59/2/1 48/2/1 54/2/1
f 59/2/1 54/2/1 58/2/1
f 60/2/1 57/2/1 56/2/1
f 61/2/1 57/2/1 60/2/1
f 62/4/2 63/4/2 69/4/2
f 69/4/2 63/4/2 70/4/2
f 64/4/2 65/4/2 71/4/2
f 71/4/2 65/4/2 72/4/2
f 66/4/2 67/4/2 73/4/2
f 73/4/2 67/4/2 74/4/2
f 68/2/2 69/2/2 77/2/2
f 69/4/2 70/4/2 78/4/2
f 77/2/2 69/2/2 78/2/2
f 70/3/2 71/3/2 79/3/2
f 78/4/2 70/4/2 79/4/2
f 71/4/2 72/4/2 80/4/2
f 79/3/2 71/3/2 80/3/2
f 72/2/2 73/2/2 81/2/2
f 80/4/2 72/4/2 81/4/2
f 73/4/2 74/4/2 82/4/2
f 81/2/2 73/2/2 82/2/2
f 74/2/2 75/2/2 83/2/2
f 82/4/2 74/4/2 83/4/2
f 78/3/2 79/3/2 84/3/2
f 76/2/2 77/2/2 84/2/2
f 77/3/2 78/3/2 84/3/2
f 79/3/2 80/3/2 84/3/2
f 84/3/2 80/3/2 85/3/2
f 85/3/2 80/3/2 86/3/2
f 80/2/2 81/2/2 87/2/2
f 86/3/2 80/3/2 87/3/2
f 83/2/2 75/2/2 88/2/2
f 82/3/2 83/3/2 88/3/2
f 81/3/2 82/3/2 88/3/2
f 88/2/2 75/2/2 89/2/2
f 84/2/2 85/2/2 90/2/2
f 85/3/2 86/3/2 90/3/2
f 86/2/2 87/2/2 91/2/2
f 90/3/2 86/3/2 91/3/2
f 87/2/2 81/2/2 92/2/2
f 91/2/2 87/2/2 92/2/2
f 88/3/2 89/3/2 92/3/2
f 81/3/2 88/3/2 92/3/2
f 92/3/2 89/3/2 93/3/2
f 90/2/2 91/2/2 94/2/2
f 84/2/2 90/2/2 94/2/2
f 92/2/2 93/2/2 94/2/2
f 91/2/2 92/2/2 94/2/2
f 76/2/2 84/2/2 94/2/2
f 94/2/2 93/2/2 95/2/2
f 95/2/2 93/2/2 96/2/2
f 96/2/2 93/2/2 97/2/2
f 97/2/2 93/2/2 98/2/2
f 98/2/2 93/2/2 99/2/2
f 93/3/2 89/3/2 100/3/2
f 99/2/2 93/2/2 100/2/2
f 100/3/2 89/3/2 101/3/2
f 95/3/2 96/3/2 102/3/2
f 102/3/2 96/3/2 103/3/2
f 96/2/2 97/2/2 104/2/2
f 103/3/2 96/3/2 104/3/2
f 97/3/2 98/3/2 105/3/2
f 104/2/2 97/2/2 105/2/2
f 98/2/2 99/2/2 106/2/2
f 105/3/2 98/3/2 106/3/2
f 106/2/2 99/2/2 107/2/2
f 99/3/2 100/3/2 108/3/2
f 107/2/2 99/2/2 108/2/2
f 100/2/2 101/2/2 109/2/2
f 108/3/2 100/3/2 109/3/2
f 109/2/2 101/2/2 110/2/2
f 110/2/2 101/2/2 111/2/2
f 103/2/2 104/2/2 112/2/2
f 104/3/2 105/3/2 113/3/2
f 112/2/2 104/2/2 113/2/2
f 107/3/2 108/3/2 114/3/2
f 109/2/2 110/2/2 115/2/2
f 114/3/2 108/3/2 115/3/2
f 108/2/2 109/2/2 115/2/2
f 115/2/2 110/2/2 116/2/2
f 116/2/2 110/2/2 117/2/2
f 113/3/2 105/3/2 118/3/2
f 106/2/2 107/2/2 119/2/2
f 118/3/2 105/3/2 119/3/2
f 105/2/2 106/2/2 119/2/2
f 107/3/2 114/3/2 120/3/2
f 119/2/2 107/2/2 120/2/2
f 115/2/2 116/2/2 121/2/2
f 120/3/2 114/3/2 121/3/2
f 114/2/2 115/2/2 121/2/2
f 116/3/2 117/3/2 122/3/2
f 121/2/2 116/2/2 122/2/2
f 122/3/2 117/3/2 123/3/2
f 119/2/2 120/2/2 124/2/2
f 124/2/2 120/2/2 125/2/2
f 129/3/3 127/3/3 126/3/3
f 130/2/3 128/2/3 127/2/3
f 130/3/3 127/3/3 129/3/3
f 131/2/3 130/2/3 129/2/3
f 132/2/3 130/2/3 131/2/3
f 133/3/3 132/3/3 131/3/3
f 134/2/3 130/2/3 132/2/3
f 134/3/3 132/3/3 133/3/3
f 135/2/3 134/2/3 133/2/3
f 136/2/3 128/2/3 130/2/3
f 136/2/3 134/2/3 135/2/3
f 136/2/3 130/2/3 134/2/3
f 141/2/3 138/2/3 137/2/3
f 142/3/3 140/3/3 139/3/3
f 143/3/3 140/3/3 142/3/3
f 144/2/3 141/2/3 137/2/3
f 145/2/3 144/2/3 137/2/3
f 146/2/3 143/2/3 142/2/3
f 147/2/3 143/2/3 146/2/3
f 148/2/3 145/2/3 137/2/3
f 149/2/3 145/2/3 148/2/3
f 150/3/3 147/3/3 146/3/3
f 151/3/3 147/3/3 150/3/3
f 154/2/3 153/2/3 152/2/3
f 155/2/3 153/2/3 154/2/3
f 156/2/3 153/2/3 155/2/3
f 157/2/3 153/2/3 156/2/3
f 162/2/3 161/2/3 160/2/3
f 163/2/3 161/2/3 162/2/3
f 164/4/3 159/4/3 158/4/3
f 165/4/3 159/4/3 164/4/3
f 166/3/3 163/3/3 162/3/3
f 167/3/3 163/3/3 166/3/3
f 170/2/3 169/2/3 168/2/3
f 171/2/3 169/2/3 170/2/3
f 172/3/3 171/3/3 170/3/3
f 173/3/3 171/3/3 172/3/3
f 174/2/3 173/2/3 172/2/3
f 175/2/3 173/2/3 174/2/3
f 176/2/3 173/2/3 175/2/3
f 179/4/3 178/4/3 177/4/3
f 180/4/3 178/4/3 179/4/3
f 183/4/3 182/4/3 181/4/3
f 184/4/3 182/4/3 183/4/3
f 185/4/4 186/4/4 187/4/4
f 187/4/4 186/4/4 188/4/4
f 189/2/4 190/2/4 191/2/4
f 191/2/4 190/2/4 192/2/4
f 193/4/4 194/4/4 195/4/4
f 195/4/4 194/4/4 196/4/4
f 197/4/4 198/4/4 199/4/4
f 199/4/4 198/4/4 200/4/4
f 201/2/4 202/2/4 203/2/4
f 203/2/4 202/2/4 204/2/4
f 203/3/4 204/3/4 205/3/4
f 205/3/4 204/3/4 206/3/4
f 205/2/4 206/2/4 207/2/4
f 206/3/4 204/3/4 208/3/4
f 207/2/4 206/2/4 208/2/4
f 208/3/4 204/3/4 209/3/4
f 211/3/4 212/3/4 214/3/4
f 212/2/4 213/2/4 215/2/4
f 214/3/4 212/3/4 215/3/4
f 210/2/4 211/2/4 216/2/4
f 211/3/4 214/3/4 216/3/4
f 214/2/4 215/2/4 217/2/4
f 216/3/4 214/3/4 217/3/4
f 210/2/4 216/2/4 218/2/4
f 216/2/4 217/2/4 218/2/4
f 215/2/4 213/2/4 219/2/4
f 218/2/4 217/2/4 219/2/4
f 217/2/4 215/2/4 219/2/4
f 210/2/4 218/2/4 220/2/4
f 218/3/4 219/3/4 221/3/4
f 220/2/4 218/2/4 221/2/4
f 219/2/4 213/2/4 222/2/4
f 221/3/4 219/3/4 222/3/4
f 222/2/4 213/2/4 223/2/4
f 226/4/5 225/4/5 224/4/5
f 227/4/5 225/4/5 226/4/5
f 230/4/5 229/4/5 228/4/5
f 231/4/5 229/4/5 230/4/5
f 234/4/5 233/4/5 232/4/5
f 235/4/5 233/4/5 234/4/5
f 238/2/5 237/2/5 236/2/5
f 239/2/5 237/2/5 238/2/5
f 242/3/5 241/3/5 240/3/5
f 243/3/5 241/3/5 242/3/5
f 246/2/5 245/2/5 244/2/5
f 247/2/5 245/2/5 246/2/5
f 250/2/5 249/2/5 248/2/5
f 251/2/5 249/2/5 250/2/5
f 257/3/5 253/3/5 252/3/5
f 258/2/5 254/2/5 253/2/5
f 258/3/5 253/3/5 257/3/5
f 259/3/5 255/3/5 254/3/5
f 259/2/5 254/2/5 258/2/5
f 260/2/5 256/2/5 255/2/5
f 260/3/5 255/3/5 259/3/5
f 261/2/5 256/2/5 260/2/5
f 262/2/6 263/2/6 264/2/6
f 264/2/6 263/2/6 265/2/6
f 265/2/6 263/2/6 266/2/6
f 266/2/6 263/2/6 267/2/6
f 268/3/6 269/3/6 272/3/6
f 269/2/6 270/2/6 273/2/6
f 272/3/6 269/3/6 273/3/6
f 270/3/6 271/3/6 274/3/6
f 273/2/6 270/2/6 274/2/6
f 274/3/6 271/3/6 275/3/6
f 276/2/6 277/2/6 280/2/6
f 278/2/6 279/2/6 280/2/6
f 277/2/6 278/2/6 280/2/6
f 280/2/6 279/2/6 281/2/6
f 282/2/6 283/2/6 284/2/6
f 284/2/6 283/2/6 285/2/6
f 285/2/6 283/2/6 286/2/6
f 287/2/6 288/2/6 290/2/6
f 290/2/6 288/2/6 291/2/6
f 291/2/6 288/2/6 292/2/6
f 288/3/6 289/3/6 293/3/6
f 292/2/6 288/2/6 293/2/6
f 293/3/6 289/3/6 294/3/6
f 295/3/6 296/3/6 297/3/6
f 297/3/6 296/3/6 298/3/6
f 298/3/6 296/3/6 299/3/6
f 299/3/6 296/3/6 300/3/6
f 297/2/6 298/2/6 301/2/6
f 298/3/6 299/3/6 301/3/6
f 299/2/6 300/2/6 302/2/6
f 301/3/6 299/3/6 302/3/6
f 297/2/6 301/2/6 303/2/6
f 301/2/6 302/2/6 303/2/6
f 302/2/6 300/2/6 304/2/6
f 303/2/6 302/2/6 304/2/6
f 297/2/6 303/2/6 305/2/6
f 303/3/6 304/3/6 306/3/6
f 305/2/6 303/2/6 306/2/6
f 306/3/6 304/3/6 307/3/6
f 308/2/6 309/2/6 312/2/6
f 309/3/6 310/3/6 312/3/6
f 310/2/6 311/2/6 313/2/6
f 312/3/6 310/3/6 313/3/6
f 308/2/6 312/2/6 314/2/6
f 312/2/6 313/2/6 314/2/6
f 313/2/6 311/2/6 315/2/6
f 314/2/6 313/2/6 315/2/6
