# MagicaVoxel @ Ephtracy

# group
g Enemy

# material
mtllib Enemy.mtl
usemtl palette

# normals
vn -1 0 0
vn 1 0 0
vn 0 0 1
vn 0 0 -1
vn 0 -1 0
vn 0 1 0

# texcoords
vt 0.181641 0.5
vt 0.208984 0.5
vt 0.994141 0.5

# verts
v -7 4 2
v -7 4 -2
v -7 5 -0
v -7 5 -2
v -7 6 2
v -7 6 -0
v -7 7 2
v -7 7 -2
v -7 9 2
v -7 9 -2
v -6 7 4
v -6 7 3
v -6 7 -3
v -6 7 -4
v -6 10 3
v -6 10 -3
v -6 11 4
v -6 11 -4
v -5 6 3
v -5 6 2
v -5 6 -2
v -5 6 -3
v -5 7 5
v -5 7 4
v -5 7 3
v -5 7 2
v -5 7 -2
v -5 7 -3
v -5 7 -4
v -5 7 -5
v -5 8 2
v -5 8 -2
v -5 9 2
v -5 9 -2
v -5 10 3
v -5 10 -3
v -5 11 5
v -5 11 4
v -5 11 2
v -5 11 -4
v -5 11 -5
v -5 12 2
v -5 12 -4
v -4 4 2
v -4 4 -2
v -4 5 3
v -4 5 2
v -4 5 -2
v -4 5 -3
v -4 6 4
v -4 6 3
v -4 6 -3
v -4 6 -4
v -4 7 4
v -4 7 3
v -4 7 -3
v -4 7 -4
v -3 2 2
v -3 2 -2
v -3 3 2
v -3 3 -2
v -3 4 3
v -3 4 2
v -3 4 -2
v -3 4 -3
v -3 5 4
v -3 5 3
v -3 5 2
v -3 5 -2
v -3 5 -3
v -3 5 -4
v -3 6 4
v -3 6 3
v -3 6 -3
v -3 6 -4
v -2 0 2
v -2 0 1
v -2 0 -1
v -2 0 -2
v -2 1 1
v -2 1 -1
v -2 2 3
v -2 2 2
v -2 2 -2
v -2 2 -3
v -2 3 3
v -2 3 2
v -2 3 -2
v -2 3 -3
v -2 4 4
v -2 4 3
v -2 4 2
v -2 4 -2
v -2 4 -3
v -2 4 -4
v -2 5 4
v -2 5 3
v -2 5 -3
v -2 5 -4
v -2 6 5
v -2 6 4
v -2 6 -4
v -2 6 -5
v -2 7 5
v -2 7 4
v -2 7 -4
v -2 7 -5
v -2 11 2
v -2 11 -2
v -2 12 2
v -2 12 -0
v -2 13 2
v -2 13 -0
v -2 14 -0
v -2 14 -2
v 1 0 2
v 1 0 1
v 1 0 -1
v 1 0 -2
v 1 1 2
v 1 1 1
v 1 1 -1
v 1 1 -2
v 1 13 -0
v 1 13 -2
v 1 14 -0
v 1 14 -2
v 3 11 2
v 3 11 -3
v 3 12 2
v 3 12 -3
v 5 4 2
v 5 4 -2
v 5 5 -1
v 5 5 -2
v 5 6 2
v 5 6 -1
v 5 6 -2
v -5 4 2
v -5 4 -2
v -5 5 -1
v -5 5 -2
v -5 6 2
v -5 6 -1
v -5 6 -2
v -3 11 2
v -3 11 -3
v -3 12 2
v -3 12 -3
v -1 0 2
v -1 0 1
v -1 0 -1
v -1 0 -2
v -1 1 2
v -1 1 1
v -1 1 -1
v -1 1 -2
v -1 13 -0
v -1 13 -2
v -1 14 -0
v -1 14 -2
v 2 0 2
v 2 0 1
v 2 0 -1
v 2 0 -2
v 2 1 1
v 2 1 -1
v 2 2 3
v 2 2 2
v 2 2 -2
v 2 2 -3
v 2 3 3
v 2 3 2
v 2 3 -2
v 2 3 -3
v 2 4 4
v 2 4 3
v 2 4 2
v 2 4 -2
v 2 4 -3
v 2 4 -4
v 2 5 4
v 2 5 3
v 2 5 -3
v 2 5 -4
v 2 6 5
v 2 6 4
v 2 6 -4
v 2 6 -5
v 2 7 5
v 2 7 4
v 2 7 -4
v 2 7 -5
v 2 11 2
v 2 11 -2
v 2 12 2
v 2 12 -0
v 2 13 2
v 2 13 -0
v 2 14 -0
v 2 14 -2
v 3 2 2
v 3 2 -2
v 3 3 2
v 3 3 -2
v 3 4 3
v 3 4 2
v 3 4 -2
v 3 4 -3
v 3 5 4
v 3 5 3
v 3 5 2
v 3 5 -2
v 3 5 -3
v 3 5 -4
v 3 6 4
v 3 6 3
v 3 6 -3
v 3 6 -4
v 4 4 2
v 4 4 -2
v 4 5 3
v 4 5 2
v 4 5 -2
v 4 5 -3
v 4 6 4
v 4 6 3
v 4 6 -3
v 4 6 -4
v 4 7 4
v 4 7 3
v 4 7 -3
v 4 7 -4
v 5 6 3
v 5 6 2
v 5 6 -2
v 5 6 -3
v 5 7 5
v 5 7 4
v 5 7 3
v 5 7 2
v 5 7 -2
v 5 7 -3
v 5 7 -4
v 5 7 -5
v 5 8 2
v 5 8 -2
v 5 9 2
v 5 9 -2
v 5 10 3
v 5 10 -3
v 5 11 5
v 5 11 4
v 5 11 2
v 5 11 -4
v 5 11 -5
v 5 12 2
v 5 12 -4
v 6 7 4
v 6 7 3
v 6 7 -3
v 6 7 -4
v 6 10 3
v 6 10 -3
v 6 11 4
v 6 11 -4
v 7 4 2
v 7 4 -2
v 7 5 -0
v 7 5 -2
v 7 6 2
v 7 6 -0
v 7 7 2
v 7 7 -2
v 7 9 2
v 7 9 -2
v -5 7 5
v -5 11 5
v -4 9 5
v -4 10 5
v -3 7 5
v -3 9 5
v -2 6 5
v -2 7 5
v -2 10 5
v 2 6 5
v 2 7 5
v 2 10 5
v 3 7 5
v 3 9 5
v 4 9 5
v 4 10 5
v 5 7 5
v 5 11 5
v -6 7 4
v -6 11 4
v -5 7 4
v -5 11 4
v -4 6 4
v -4 7 4
v -3 5 4
v -3 6 4
v -3 7 4
v -2 4 4
v -2 5 4
v -2 6 4
v -2 7 4
v 2 4 4
v 2 5 4
v 2 6 4
v 2 7 4
v 3 5 4
v 3 6 4
v 3 7 4
v 4 6 4
v 4 7 4
v 5 7 4
v 5 11 4
v 6 7 4
v 6 11 4
v -5 6 3
v -5 7 3
v -4 5 3
v -4 6 3
v -4 7 3
v -3 4 3
v -3 5 3
v -3 6 3
v -2 2 3
v -2 3 3
v -2 4 3
v -2 5 3
v 2 2 3
v 2 3 3
v 2 4 3
v 2 5 3
v 3 4 3
v 3 5 3
v 3 6 3
v 4 5 3
v 4 6 3
v 4 7 3
v 5 6 3
v 5 7 3
v -7 4 2
v -7 6 2
v -7 7 2
v -7 9 2
v -6 8 2
v -6 9 2
v -5 4 2
v -5 6 2
v -5 7 2
v -5 8 2
v -5 9 2
v -5 11 2
v -5 12 2
v -4 4 2
v -4 5 2
v -3 2 2
v -3 3 2
v -3 4 2
v -3 5 2
v -3 11 2
v -3 12 2
v -2 0 2
v -2 2 2
v -2 3 2
v -2 4 2
v -2 11 2
v -2 12 2
v -2 13 2
v -1 0 2
v -1 1 2
v 1 0 2
v 1 1 2
v 2 0 2
v 2 2 2
v 2 3 2
v 2 4 2
v 2 11 2
v 2 12 2
v 2 13 2
v 3 2 2
v 3 3 2
v 3 4 2
v 3 5 2
v 3 11 2
v 3 12 2
v 4 4 2
v 4 5 2
v 5 4 2
v 5 6 2
v 5 7 2
v 5 8 2
v 5 9 2
v 5 11 2
v 5 12 2
v 6 8 2
v 6 9 2
v 7 4 2
v 7 6 2
v 7 7 2
v 7 9 2
v -2 13 -0
v -2 14 -0
v -1 13 -0
v -1 14 -0
v 1 13 -0
v 1 14 -0
v 2 13 -0
v 2 14 -0
v -2 0 -1
v -2 1 -1
v -1 0 -1
v -1 1 -1
v 1 0 -1
v 1 1 -1
v 2 0 -1
v 2 1 -1
v -6 7 -3
v -6 10 -3
v -5 7 -3
v -5 10 -3
v -3 11 -3
v -3 12 -3
v 3 11 -3
v 3 12 -3
v 5 7 -3
v 5 10 -3
v 6 7 -3
v 6 10 -3
v -6 7 3
v -6 10 3
v -5 7 3
v -5 10 3
v 5 7 3
v 5 10 3
v 6 7 3
v 6 10 3
v -2 0 1
v -2 1 1
v -1 0 1
v -1 1 1
v 1 0 1
v 1 1 1
v 2 0 1
v 2 1 1
v -7 4 -2
v -7 5 -2
v -7 7 -2
v -7 9 -2
v -6 8 -2
v -6 9 -2
v -5 4 -2
v -5 5 -2
v -5 6 -2
v -5 7 -2
v -5 8 -2
v -5 9 -2
v -4 4 -2
v -4 5 -2
v -3 2 -2
v -3 3 -2
v -3 4 -2
v -3 5 -2
v -2 0 -2
v -2 2 -2
v -2 3 -2
v -2 4 -2
v -2 11 -2
v -2 14 -2
v -1 0 -2
v -1 1 -2
v -1 13 -2
v -1 14 -2
v 1 0 -2
v 1 1 -2
v 1 13 -2
v 1 14 -2
v 2 0 -2
v 2 2 -2
v 2 3 -2
v 2 4 -2
v 2 11 -2
v 2 14 -2
v 3 2 -2
v 3 3 -2
v 3 4 -2
v 3 5 -2
v 4 4 -2
v 4 5 -2
v 5 4 -2
v 5 5 -2
v 5 6 -2
v 5 7 -2
v 5 8 -2
v 5 9 -2
v 6 8 -2
v 6 9 -2
v 7 4 -2
v 7 5 -2
v 7 7 -2
v 7 9 -2
v -5 6 -3
v -5 7 -3
v -4 5 -3
v -4 6 -3
v -4 7 -3
v -3 4 -3
v -3 5 -3
v -3 6 -3
v -2 2 -3
v -2 3 -3
v -2 4 -3
v -2 5 -3
v 2 2 -3
v 2 3 -3
v 2 4 -3
v 2 5 -3
v 3 4 -3
v 3 5 -3
v 3 6 -3
v 4 5 -3
v 4 6 -3
v 4 7 -3
v 5 6 -3
v 5 7 -3
v -6 7 -4
v -6 11 -4
v -5 7 -4
v -5 11 -4
v -5 12 -4
v -4 6 -4
v -4 7 -4
v -3 5 -4
v -3 6 -4
v -3 7 -4
v -2 4 -4
v -2 5 -4
v -2 6 -4
v -2 7 -4
v 2 4 -4
v 2 5 -4
v 2 6 -4
v 2 7 -4
v 3 5 -4
v 3 6 -4
v 3 7 -4
v 4 6 -4
v 4 7 -4
v 5 7 -4
v 5 11 -4
v 5 12 -4
v 6 7 -4
v 6 11 -4
v -5 7 -5
v -5 11 -5
v -4 7 -5
v -4 10 -5
v -3 7 -5
v -3 9 -5
v -2 6 -5
v -2 7 -5
v -1 9 -5
v -1 10 -5
v 1 9 -5
v 1 10 -5
v 2 6 -5
v 2 7 -5
v 3 7 -5
v 3 9 -5
v 4 7 -5
v 4 10 -5
v 5 7 -5
v 5 11 -5
v -2 0 2
v -1 0 2
v 1 0 2
v 2 0 2
v -2 0 1
v -1 0 1
v 1 0 1
v 2 0 1
v -2 0 -1
v -1 0 -1
v 1 0 -1
v 2 0 -1
v -2 0 -2
v -1 0 -2
v 1 0 -2
v 2 0 -2
v -1 1 2
v 1 1 2
v -2 1 1
v -1 1 1
v 1 1 1
v 2 1 1
v -2 1 -1
v -1 1 -1
v 1 1 -1
v 2 1 -1
v -1 1 -2
v 1 1 -2
v -2 2 3
v 2 2 3
v -3 2 2
v -2 2 2
v 2 2 2
v 3 2 2
v -3 2 -2
v -2 2 -2
v 2 2 -2
v 3 2 -2
v -2 2 -3
v 2 2 -3
v -2 4 4
v 2 4 4
v -3 4 3
v -2 4 3
v 2 4 3
v 3 4 3
v -7 4 2
v -5 4 2
v -4 4 2
v -3 4 2
v -2 4 2
v 2 4 2
v 3 4 2
v 4 4 2
v 5 4 2
v 7 4 2
v -7 4 -2
v -5 4 -2
v -4 4 -2
v -3 4 -2
v -2 4 -2
v 2 4 -2
v 3 4 -2
v 4 4 -2
v 5 4 -2
v 7 4 -2
v -3 4 -3
v -2 4 -3
v 2 4 -3
v 3 4 -3
v -2 4 -4
v 2 4 -4
v -3 5 4
v -2 5 4
v 2 5 4
v 3 5 4
v -4 5 3
v -3 5 3
v -2 5 3
v 2 5 3
v 3 5 3
v 4 5 3
v -4 5 2
v -3 5 2
v 3 5 2
v 4 5 2
v -4 5 -2
v -3 5 -2
v 3 5 -2
v 4 5 -2
v -4 5 -3
v -3 5 -3
v -2 5 -3
v 2 5 -3
v 3 5 -3
v 4 5 -3
v -3 5 -4
v -2 5 -4
v 2 5 -4
v 3 5 -4
v -2 6 5
v 2 6 5
v -4 6 4
v -3 6 4
v -2 6 4
v 2 6 4
v 3 6 4
v 4 6 4
v -5 6 3
v -4 6 3
v -3 6 3
v 3 6 3
v 4 6 3
v 5 6 3
v -5 6 2
v 5 6 2
v -5 6 -1
v 5 6 -1
v -5 6 -2
v 5 6 -2
v -5 6 -3
v -4 6 -3
v -3 6 -3
v 3 6 -3
v 4 6 -3
v 5 6 -3
v -4 6 -4
v -3 6 -4
v -2 6 -4
v 2 6 -4
v 3 6 -4
v 4 6 -4
v -2 6 -5
v 2 6 -5
v -5 7 5
v -3 7 5
v -2 7 5
v 2 7 5
v 3 7 5
v 5 7 5
v -6 7 4
v -5 7 4
v -4 7 4
v -3 7 4
v -2 7 4
v 2 7 4
v 3 7 4
v 4 7 4
v 5 7 4
v 6 7 4
v -6 7 3
v -5 7 3
v -4 7 3
v 4 7 3
v 5 7 3
v 6 7 3
v -6 7 -3
v -5 7 -3
v -4 7 -3
v 4 7 -3
v 5 7 -3
v 6 7 -3
v -6 7 -4
v -5 7 -4
v -4 7 -4
v -3 7 -4
v -2 7 -4
v 2 7 -4
v 3 7 -4
v 4 7 -4
v 5 7 -4
v 6 7 -4
v -5 7 -5
v -4 7 -5
v -3 7 -5
v -2 7 -5
v 2 7 -5
v 3 7 -5
v 4 7 -5
v 5 7 -5
v -6 10 3
v -5 10 3
v 5 10 3
v 6 10 3
v -6 10 -3
v -5 10 -3
v 5 10 -3
v 6 10 -3
v -7 9 2
v -6 9 2
v -5 9 2
v 5 9 2
v 6 9 2
v 7 9 2
v -7 9 -2
v -6 9 -2
v -5 9 -2
v 5 9 -2
v 6 9 -2
v 7 9 -2
v -5 11 5
v 5 11 5
v -6 11 4
v -5 11 4
v 5 11 4
v 6 11 4
v -3 11 3
v 3 11 3
v -5 11 2
v -3 11 2
v -2 11 2
v 2 11 2
v 3 11 2
v 5 11 2
v -2 11 -2
v 2 11 -2
v -3 11 -3
v 3 11 -3
v -6 11 -4
v -5 11 -4
v 5 11 -4
v 6 11 -4
v -5 11 -5
v 5 11 -5
v -5 12 2
v -3 12 2
v 3 12 2
v 5 12 2
v -3 12 -3
v 3 12 -3
v -5 12 -4
v 5 12 -4
v -2 13 2
v 2 13 2
v -1 13 1
v 1 13 1
v -2 13 -0
v -1 13 -0
v 1 13 -0
v 2 13 -0
v -1 13 -2
v 1 13 -2
v -2 14 -0
v -1 14 -0
v 1 14 -0
v 2 14 -0
v -2 14 -2
v -1 14 -2
v 1 14 -2
v 2 14 -2

# faces
f 3/2/1 2/2/1 1/2/1
f 4/2/1 2/2/1 3/2/1
f 5/2/1 3/2/1 1/2/1
f 6/1/1 4/1/1 3/1/1
f 6/2/1 3/2/1 5/2/1
f 7/1/1 6/1/1 5/1/1
f 8/1/1 4/1/1 6/1/1
f 8/1/1 6/1/1 7/1/1
f 9/2/1 8/2/1 7/2/1
f 10/2/1 8/2/1 9/2/1
f 15/2/1 12/2/1 11/2/1
f 16/2/1 14/2/1 13/2/1
f 17/2/1 15/2/1 11/2/1
f 17/2/1 16/2/1 15/2/1
f 18/2/1 14/2/1 16/2/1
f 18/2/1 16/2/1 17/2/1
f 25/1/1 20/1/1 19/1/1
f 26/1/1 20/1/1 25/1/1
f 27/1/1 22/1/1 21/1/1
f 28/1/1 22/1/1 27/1/1
f 31/1/1 26/1/1 25/1/1
f 32/1/1 28/1/1 27/1/1
f 33/1/1 31/1/1 25/1/1
f 34/1/1 28/1/1 32/1/1
f 35/1/1 33/1/1 25/1/1
f 35/1/1 34/1/1 33/1/1
f 36/1/1 28/1/1 34/1/1
f 36/1/1 34/1/1 35/1/1
f 37/2/1 24/2/1 23/2/1
f 38/2/1 24/2/1 37/2/1
f 40/2/1 30/2/1 29/2/1
f 41/2/1 30/2/1 40/2/1
f 42/2/1 40/2/1 39/2/1
f 43/2/1 40/2/1 42/2/1
f 47/1/1 45/1/1 44/1/1
f 48/1/1 45/1/1 47/1/1
f 51/1/1 47/1/1 46/1/1
f 51/1/1 49/1/1 48/1/1
f 51/1/1 48/1/1 47/1/1
f 52/1/1 49/1/1 51/1/1
f 54/2/1 51/2/1 50/2/1
f 55/2/1 51/2/1 54/2/1
f 56/1/1 53/1/1 52/1/1
f 57/1/1 53/1/1 56/1/1
f 60/2/1 59/2/1 58/2/1
f 61/2/1 59/2/1 60/2/1
f 63/1/1 61/1/1 60/1/1
f 64/1/1 61/1/1 63/1/1
f 67/1/1 63/1/1 62/1/1
f 68/1/1 63/1/1 67/1/1
f 69/1/1 65/1/1 64/1/1
f 70/1/1 65/1/1 69/1/1
f 72/1/1 67/1/1 66/1/1
f 73/1/1 67/1/1 72/1/1
f 74/1/1 71/1/1 70/1/1
f 75/1/1 71/1/1 74/1/1
f 80/2/1 77/2/1 76/2/1
f 81/2/1 79/2/1 78/2/1
f 83/2/1 80/2/1 76/2/1
f 83/2/1 81/2/1 80/2/1
f 84/2/1 79/2/1 81/2/1
f 84/2/1 81/2/1 83/2/1
f 86/2/1 83/2/1 82/2/1
f 87/2/1 83/2/1 86/2/1
f 88/2/1 85/2/1 84/2/1
f 89/2/1 85/2/1 88/2/1
f 91/1/1 87/1/1 86/1/1
f 92/1/1 87/1/1 91/1/1
f 93/1/1 89/1/1 88/1/1
f 94/1/1 89/1/1 93/1/1
f 96/2/1 91/2/1 90/2/1
f 97/2/1 91/2/1 96/2/1
f 98/1/1 95/1/1 94/1/1
f 99/1/1 95/1/1 98/1/1
f 104/2/1 101/2/1 100/2/1
f 105/2/1 101/2/1 104/2/1
f 106/2/1 103/2/1 102/2/1
f 107/2/1 103/2/1 106/2/1
f 110/2/1 109/2/1 108/2/1
f 111/2/1 109/2/1 110/2/1
f 112/3/1 111/3/1 110/3/1
f 113/2/1 109/2/1 111/2/1
f 113/3/1 111/3/1 112/3/1
f 114/2/1 109/2/1 113/2/1
f 115/2/1 109/2/1 114/2/1
f 120/2/1 117/2/1 116/2/1
f 121/2/1 117/2/1 120/2/1
f 122/2/1 119/2/1 118/2/1
f 123/2/1 119/2/1 122/2/1
f 126/2/1 125/2/1 124/2/1
f 127/2/1 125/2/1 126/2/1
f 130/2/1 129/2/1 128/2/1
f 131/2/1 129/2/1 130/2/1
f 134/2/1 133/2/1 132/2/1
f 135/2/1 133/2/1 134/2/1
f 136/2/1 134/2/1 132/2/1
f 137/1/1 135/1/1 134/1/1
f 137/2/1 134/2/1 136/2/1
f 138/1/1 135/1/1 137/1/1
f 139/2/2 140/2/2 141/2/2
f 141/2/2 140/2/2 142/2/2
f 139/2/2 141/2/2 143/2/2
f 141/1/2 142/1/2 144/1/2
f 143/2/2 141/2/2 144/2/2
f 144/1/2 142/1/2 145/1/2
f 146/2/2 147/2/2 148/2/2
f 148/2/2 147/2/2 149/2/2
f 150/2/2 151/2/2 154/2/2
f 154/2/2 151/2/2 155/2/2
f 152/2/2 153/2/2 156/2/2
f 156/2/2 153/2/2 157/2/2
f 158/2/2 159/2/2 160/2/2
f 160/2/2 159/2/2 161/2/2
f 162/2/2 163/2/2 166/2/2
f 164/2/2 165/2/2 167/2/2
f 162/2/2 166/2/2 169/2/2
f 166/2/2 167/2/2 169/2/2
f 167/2/2 165/2/2 170/2/2
f 169/2/2 167/2/2 170/2/2
f 168/2/2 169/2/2 172/2/2
f 172/2/2 169/2/2 173/2/2
f 170/2/2 171/2/2 174/2/2
f 174/2/2 171/2/2 175/2/2
f 172/1/2 173/1/2 177/1/2
f 177/1/2 173/1/2 178/1/2
f 174/1/2 175/1/2 179/1/2
f 179/1/2 175/1/2 180/1/2
f 176/2/2 177/2/2 182/2/2
f 182/2/2 177/2/2 183/2/2
f 180/1/2 181/1/2 184/1/2
f 184/1/2 181/1/2 185/1/2
f 186/2/2 187/2/2 190/2/2
f 190/2/2 187/2/2 191/2/2
f 188/2/2 189/2/2 192/2/2
f 192/2/2 189/2/2 193/2/2
f 194/2/2 195/2/2 196/2/2
f 196/2/2 195/2/2 197/2/2
f 196/3/2 197/3/2 198/3/2
f 197/2/2 195/2/2 199/2/2
f 198/3/2 197/3/2 199/3/2
f 199/2/2 195/2/2 200/2/2
f 200/2/2 195/2/2 201/2/2
f 202/2/2 203/2/2 204/2/2
f 204/2/2 203/2/2 205/2/2
f 204/1/2 205/1/2 207/1/2
f 207/1/2 205/1/2 208/1/2
f 206/1/2 207/1/2 211/1/2
f 211/1/2 207/1/2 212/1/2
f 208/1/2 209/1/2 213/1/2
f 213/1/2 209/1/2 214/1/2
f 210/1/2 211/1/2 216/1/2
f 216/1/2 211/1/2 217/1/2
f 214/1/2 215/1/2 218/1/2
f 218/1/2 215/1/2 219/1/2
f 220/1/2 221/1/2 223/1/2
f 223/1/2 221/1/2 224/1/2
f 222/1/2 223/1/2 227/1/2
f 224/1/2 225/1/2 227/1/2
f 223/1/2 224/1/2 227/1/2
f 227/1/2 225/1/2 228/1/2
f 226/2/2 227/2/2 230/2/2
f 230/2/2 227/2/2 231/2/2
f 228/1/2 229/1/2 232/1/2
f 232/1/2 229/1/2 233/1/2
f 234/1/2 235/1/2 240/1/2
f 240/1/2 235/1/2 241/1/2
f 236/1/2 237/1/2 242/1/2
f 242/1/2 237/1/2 243/1/2
f 240/1/2 241/1/2 246/1/2
f 242/1/2 243/1/2 247/1/2
f 240/1/2 246/1/2 248/1/2
f 247/1/2 243/1/2 249/1/2
f 240/1/2 248/1/2 250/1/2
f 248/1/2 249/1/2 250/1/2
f 249/1/2 243/1/2 251/1/2
f 250/1/2 249/1/2 251/1/2
f 238/2/2 239/2/2 252/2/2
f 252/2/2 239/2/2 253/2/2
f 244/2/2 245/2/2 255/2/2
f 255/2/2 245/2/2 256/2/2
f 254/2/2 255/2/2 257/2/2
f 257/2/2 255/2/2 258/2/2
f 259/2/2 260/2/2 263/2/2
f 261/2/2 262/2/2 264/2/2
f 259/2/2 263/2/2 265/2/2
f 263/2/2 264/2/2 265/2/2
f 264/2/2 262/2/2 266/2/2
f 265/2/2 264/2/2 266/2/2
f 267/2/2 268/2/2 269/2/2
f 269/2/2 268/2/2 270/2/2
f 267/2/2 269/2/2 271/2/2
f 269/1/2 270/1/2 272/1/2
f 271/2/2 269/2/2 272/2/2
f 271/1/2 272/1/2 273/1/2
f 272/1/2 270/1/2 274/1/2
f 273/1/2 272/1/2 274/1/2
f 273/2/2 274/2/2 275/2/2
f 275/2/2 274/2/2 276/2/2
f 279/2/3 278/2/3 277/2/3
f 280/2/3 278/2/3 279/2/3
f 281/2/3 279/2/3 277/2/3
f 282/1/3 280/1/3 279/1/3
f 282/2/3 279/2/3 281/2/3
f 284/1/3 282/1/3 281/1/3
f 285/2/3 278/2/3 280/2/3
f 285/1/3 280/1/3 282/1/3
f 285/1/3 282/1/3 284/1/3
f 286/2/3 284/2/3 283/2/3
f 286/2/3 285/2/3 284/2/3
f 287/2/3 285/2/3 286/2/3
f 288/2/3 278/2/3 285/2/3
f 288/2/3 285/2/3 287/2/3
f 289/1/3 288/1/3 287/1/3
f 290/1/3 288/1/3 289/1/3
f 291/2/3 290/2/3 289/2/3
f 291/1/3 288/1/3 290/1/3
f 292/2/3 278/2/3 288/2/3
f 292/1/3 288/1/3 291/1/3
f 293/2/3 291/2/3 289/2/3
f 293/2/3 292/2/3 291/2/3
f 294/2/3 278/2/3 292/2/3
f 294/2/3 292/2/3 293/2/3
f 297/2/3 296/2/3 295/2/3
f 298/2/3 296/2/3 297/2/3
f 302/2/3 300/2/3 299/2/3
f 303/2/3 300/2/3 302/2/3
f 305/1/3 302/1/3 301/1/3
f 305/1/3 303/1/3 302/1/3
f 306/1/3 303/1/3 305/1/3
f 307/1/3 303/1/3 306/1/3
f 308/2/3 305/2/3 304/2/3
f 308/2/3 306/2/3 305/2/3
f 309/2/3 306/2/3 308/2/3
f 310/2/3 306/2/3 309/2/3
f 312/1/3 311/1/3 310/1/3
f 312/1/3 310/1/3 309/1/3
f 313/1/3 311/1/3 312/1/3
f 314/1/3 311/1/3 313/1/3
f 315/2/3 314/2/3 313/2/3
f 316/2/3 314/2/3 315/2/3
f 319/2/3 318/2/3 317/2/3
f 320/2/3 318/2/3 319/2/3
f 324/1/3 322/1/3 321/1/3
f 325/1/3 322/1/3 324/1/3
f 327/1/3 324/1/3 323/1/3
f 328/1/3 324/1/3 327/1/3
f 331/1/3 327/1/3 326/1/3
f 332/1/3 327/1/3 331/1/3
f 333/2/3 330/2/3 329/2/3
f 334/1/3 331/1/3 330/1/3
f 334/2/3 330/2/3 333/2/3
f 335/1/3 331/1/3 334/1/3
f 337/1/3 336/1/3 335/1/3
f 338/1/3 336/1/3 337/1/3
f 340/1/3 339/1/3 338/1/3
f 341/1/3 339/1/3 340/1/3
f 343/1/3 342/1/3 341/1/3
f 344/1/3 342/1/3 343/1/3
f 349/2/3 348/2/3 347/2/3
f 350/2/3 348/2/3 349/2/3
f 351/2/3 346/2/3 345/2/3
f 352/1/3 347/1/3 346/1/3
f 352/2/3 346/2/3 351/2/3
f 353/2/3 349/2/3 347/2/3
f 353/1/3 347/1/3 352/1/3
f 354/1/3 350/1/3 349/1/3
f 354/2/3 349/2/3 353/2/3
f 355/1/3 350/1/3 354/1/3
f 362/1/3 359/1/3 358/1/3
f 363/1/3 359/1/3 362/1/3
f 364/2/3 357/2/3 356/2/3
f 365/2/3 357/2/3 364/2/3
f 367/2/3 361/2/3 360/2/3
f 368/1/3 362/1/3 361/1/3
f 368/2/3 361/2/3 367/2/3
f 369/1/3 362/1/3 368/1/3
f 373/2/3 367/2/3 366/2/3
f 374/2/3 367/2/3 373/2/3
f 376/2/3 367/2/3 374/2/3
f 377/2/3 376/2/3 375/2/3
f 378/2/3 367/2/3 376/2/3
f 378/2/3 376/2/3 377/2/3
f 381/2/3 371/2/3 370/2/3
f 382/3/3 372/3/3 371/3/3
f 382/2/3 371/2/3 381/2/3
f 383/3/3 372/3/3 382/3/3
f 384/2/3 379/2/3 378/2/3
f 385/1/3 380/1/3 379/1/3
f 385/2/3 379/2/3 384/2/3
f 386/1/3 380/1/3 385/1/3
f 390/1/3 387/1/3 386/1/3
f 391/1/3 387/1/3 390/1/3
f 397/2/3 389/2/3 388/2/3
f 398/2/3 389/2/3 397/2/3
f 399/1/3 396/1/3 395/1/3
f 399/2/3 395/2/3 394/2/3
f 400/1/3 396/1/3 399/1/3
f 401/2/3 393/2/3 392/2/3
f 402/1/3 394/1/3 393/1/3
f 402/2/3 393/2/3 401/2/3
f 403/2/3 399/2/3 394/2/3
f 403/1/3 394/1/3 402/1/3
f 403/2/3 400/2/3 399/2/3
f 404/2/3 400/2/3 403/2/3
f 407/2/3 406/2/3 405/2/3
f 408/2/3 406/2/3 407/2/3
f 411/2/3 410/2/3 409/2/3
f 412/2/3 410/2/3 411/2/3
f 415/2/3 414/2/3 413/2/3
f 416/2/3 414/2/3 415/2/3
f 419/2/3 418/2/3 417/2/3
f 420/2/3 418/2/3 419/2/3
f 423/2/3 422/2/3 421/2/3
f 424/2/3 422/2/3 423/2/3
f 427/2/3 426/2/3 425/2/3
f 428/2/3 426/2/3 427/2/3
f 431/2/3 430/2/3 429/2/3
f 432/2/3 430/2/3 431/2/3
f 433/2/4 434/2/4 435/2/4
f 435/2/4 434/2/4 436/2/4
f 437/2/4 438/2/4 439/2/4
f 439/2/4 438/2/4 440/2/4
f 441/2/4 442/2/4 443/2/4
f 443/2/4 442/2/4 444/2/4
f 445/2/4 446/2/4 447/2/4
f 447/2/4 446/2/4 448/2/4
f 451/2/4 452/2/4 453/2/4
f 453/2/4 452/2/4 454/2/4
f 449/2/4 450/2/4 455/2/4
f 450/1/4 451/1/4 456/1/4
f 455/2/4 450/2/4 456/2/4
f 456/1/4 451/1/4 457/1/4
f 451/2/4 453/2/4 458/2/4
f 457/1/4 451/1/4 458/1/4
f 453/1/4 454/1/4 459/1/4
f 458/2/4 453/2/4 459/2/4
f 459/1/4 454/1/4 460/1/4
f 461/1/4 462/1/4 465/1/4
f 465/1/4 462/1/4 466/1/4
f 463/2/4 464/2/4 468/2/4
f 464/1/4 465/1/4 469/1/4
f 468/2/4 464/2/4 469/2/4
f 469/1/4 465/1/4 470/1/4
f 467/2/4 468/2/4 473/2/4
f 473/2/4 468/2/4 474/2/4
f 471/2/4 472/2/4 475/2/4
f 475/2/4 472/2/4 476/2/4
f 474/2/4 468/2/4 478/2/4
f 471/2/4 475/2/4 479/2/4
f 477/2/4 478/2/4 481/2/4
f 478/2/4 468/2/4 482/2/4
f 481/2/4 478/2/4 482/2/4
f 479/2/4 480/2/4 485/2/4
f 471/2/4 479/2/4 485/2/4
f 485/2/4 480/2/4 486/2/4
f 482/2/4 483/2/4 487/2/4
f 483/1/4 484/1/4 488/1/4
f 487/2/4 483/2/4 488/2/4
f 488/1/4 484/1/4 489/1/4
f 489/1/4 490/1/4 491/1/4
f 491/1/4 490/1/4 492/1/4
f 496/2/4 497/2/4 499/2/4
f 497/1/4 498/1/4 499/1/4
f 499/1/4 498/1/4 500/1/4
f 493/2/4 494/2/4 501/2/4
f 494/1/4 495/1/4 502/1/4
f 501/2/4 494/2/4 502/2/4
f 495/1/4 496/1/4 502/1/4
f 499/2/4 500/2/4 503/2/4
f 502/1/4 496/1/4 503/1/4
f 496/2/4 499/2/4 503/2/4
f 503/2/4 500/2/4 504/2/4
f 505/1/4 506/1/4 508/1/4
f 508/1/4 506/1/4 509/1/4
f 507/1/4 508/1/4 511/1/4
f 511/1/4 508/1/4 512/1/4
f 510/1/4 511/1/4 515/1/4
f 515/1/4 511/1/4 516/1/4
f 513/2/4 514/2/4 517/2/4
f 514/1/4 515/1/4 518/1/4
f 517/2/4 514/2/4 518/2/4
f 518/1/4 515/1/4 519/1/4
f 519/1/4 520/1/4 521/1/4
f 521/1/4 520/1/4 522/1/4
f 522/1/4 523/1/4 524/1/4
f 524/1/4 523/1/4 525/1/4
f 525/1/4 526/1/4 527/1/4
f 527/1/4 526/1/4 528/1/4
f 529/2/4 530/2/4 531/2/4
f 531/2/4 530/2/4 532/2/4
f 534/1/4 535/1/4 537/1/4
f 537/1/4 535/1/4 538/1/4
f 536/1/4 537/1/4 540/1/4
f 537/2/4 538/2/4 541/2/4
f 540/1/4 537/1/4 541/1/4
f 541/2/4 538/2/4 542/2/4
f 539/1/4 540/1/4 543/1/4
f 540/2/4 541/2/4 544/2/4
f 543/1/4 540/1/4 544/1/4
f 544/2/4 541/2/4 545/2/4
f 544/1/4 545/1/4 547/1/4
f 545/2/4 546/2/4 548/2/4
f 547/1/4 545/1/4 548/1/4
f 548/2/4 546/2/4 549/2/4
f 548/1/4 549/1/4 550/1/4
f 550/1/4 549/1/4 551/1/4
f 532/2/4 533/2/4 553/2/4
f 553/2/4 533/2/4 554/2/4
f 552/2/4 553/2/4 555/2/4
f 555/2/4 553/2/4 556/2/4
f 557/2/4 558/2/4 559/2/4
f 559/2/4 558/2/4 560/2/4
f 559/1/4 560/1/4 561/1/4
f 561/1/4 560/1/4 562/1/4
f 561/2/4 562/2/4 564/2/4
f 562/1/4 560/1/4 565/1/4
f 563/2/4 564/2/4 565/2/4
f 564/2/4 562/2/4 565/2/4
f 560/2/4 558/2/4 566/2/4
f 565/1/4 560/1/4 566/1/4
f 563/2/4 565/2/4 567/2/4
f 565/2/4 566/2/4 567/2/4
f 566/2/4 558/2/4 568/2/4
f 567/2/4 566/2/4 568/2/4
f 563/2/4 567/2/4 569/2/4
f 569/2/4 567/2/4 570/2/4
f 570/2/4 567/2/4 571/2/4
f 567/1/4 568/1/4 572/1/4
f 571/2/4 567/2/4 572/2/4
f 571/1/4 572/1/4 573/1/4
f 568/2/4 558/2/4 574/2/4
f 573/1/4 572/1/4 574/1/4
f 572/1/4 568/1/4 574/1/4
f 573/2/4 574/2/4 575/2/4
f 574/2/4 558/2/4 576/2/4
f 575/2/4 574/2/4 576/2/4
f 581/2/5 578/2/5 577/2/5
f 582/2/5 578/2/5 581/2/5
f 583/2/5 580/2/5 579/2/5
f 584/2/5 580/2/5 583/2/5
f 589/2/5 586/2/5 585/2/5
f 590/2/5 586/2/5 589/2/5
f 591/2/5 588/2/5 587/2/5
f 592/2/5 588/2/5 591/2/5
f 596/2/5 594/2/5 593/2/5
f 597/2/5 594/2/5 596/2/5
f 599/2/5 596/2/5 595/2/5
f 599/2/5 598/2/5 597/2/5
f 599/2/5 597/2/5 596/2/5
f 600/2/5 598/2/5 599/2/5
f 601/2/5 598/2/5 600/2/5
f 602/2/5 598/2/5 601/2/5
f 603/2/5 601/2/5 600/2/5
f 604/2/5 601/2/5 603/2/5
f 608/2/5 606/2/5 605/2/5
f 609/2/5 606/2/5 608/2/5
f 611/2/5 608/2/5 607/2/5
f 612/2/5 608/2/5 611/2/5
f 613/2/5 610/2/5 609/2/5
f 614/2/5 610/2/5 613/2/5
f 615/2/5 613/2/5 612/2/5
f 616/2/5 613/2/5 615/2/5
f 620/2/5 618/2/5 617/2/5
f 621/2/5 618/2/5 620/2/5
f 626/1/5 620/1/5 619/1/5
f 627/1/5 620/1/5 626/1/5
f 628/1/5 622/1/5 621/1/5
f 629/1/5 622/1/5 628/1/5
f 633/2/5 624/2/5 623/2/5
f 634/2/5 624/2/5 633/2/5
f 635/1/5 626/1/5 625/1/5
f 636/1/5 626/1/5 635/1/5
f 639/1/5 630/1/5 629/1/5
f 640/1/5 630/1/5 639/1/5
f 641/2/5 632/2/5 631/2/5
f 642/2/5 632/2/5 641/2/5
f 643/1/5 637/1/5 636/1/5
f 644/1/5 637/1/5 643/1/5
f 645/1/5 639/1/5 638/1/5
f 646/1/5 639/1/5 645/1/5
f 647/1/5 645/1/5 644/1/5
f 648/1/5 645/1/5 647/1/5
f 654/1/5 650/1/5 649/1/5
f 655/1/5 650/1/5 654/1/5
f 656/1/5 652/1/5 651/1/5
f 657/1/5 652/1/5 656/1/5
f 659/1/5 654/1/5 653/1/5
f 660/1/5 654/1/5 659/1/5
f 661/1/5 658/1/5 657/1/5
f 662/1/5 658/1/5 661/1/5
f 667/1/5 664/1/5 663/1/5
f 668/1/5 664/1/5 667/1/5
f 671/1/5 666/1/5 665/1/5
f 672/1/5 666/1/5 671/1/5
f 673/1/5 669/1/5 668/1/5
f 674/1/5 669/1/5 673/1/5
f 675/1/5 671/1/5 670/1/5
f 676/1/5 671/1/5 675/1/5
f 681/2/5 678/2/5 677/2/5
f 682/2/5 678/2/5 681/2/5
f 686/2/5 680/2/5 679/2/5
f 687/2/5 680/2/5 686/2/5
f 688/2/5 684/2/5 683/2/5
f 689/2/5 684/2/5 688/2/5
f 691/1/5 686/1/5 685/1/5
f 692/1/5 690/1/5 689/1/5
f 693/1/5 686/1/5 691/1/5
f 694/1/5 692/1/5 689/1/5
f 695/1/5 686/1/5 693/1/5
f 696/1/5 694/1/5 689/1/5
f 697/1/5 686/1/5 695/1/5
f 698/1/5 686/1/5 697/1/5
f 701/1/5 696/1/5 689/1/5
f 702/1/5 696/1/5 701/1/5
f 703/1/5 699/1/5 698/1/5
f 704/1/5 699/1/5 703/1/5
f 707/1/5 701/1/5 700/1/5
f 708/1/5 701/1/5 707/1/5
f 709/2/5 706/2/5 705/2/5
f 710/2/5 706/2/5 709/2/5
f 718/2/5 712/2/5 711/2/5
f 719/2/5 712/2/5 718/2/5
f 720/1/5 713/1/5 712/1/5
f 720/2/5 712/2/5 719/2/5
f 721/1/5 713/1/5 720/1/5
f 722/1/5 715/1/5 714/1/5
f 723/2/5 716/2/5 715/2/5
f 723/1/5 715/1/5 722/1/5
f 724/2/5 716/2/5 723/2/5
f 725/2/5 716/2/5 724/2/5
f 727/2/5 719/2/5 718/2/5
f 727/2/5 718/2/5 717/2/5
f 728/2/5 719/2/5 727/2/5
f 729/2/5 719/2/5 728/2/5
f 730/2/5 726/2/5 725/2/5
f 730/2/5 725/2/5 724/2/5
f 731/2/5 726/2/5 730/2/5
f 732/2/5 726/2/5 731/2/5
f 739/2/5 734/2/5 733/2/5
f 739/2/5 735/2/5 734/2/5
f 740/2/5 735/2/5 739/2/5
f 741/2/5 735/2/5 740/2/5
f 746/2/5 738/2/5 737/2/5
f 746/2/5 737/2/5 736/2/5
f 747/2/5 738/2/5 746/2/5
f 748/2/5 738/2/5 747/2/5
f 749/2/5 741/2/5 740/2/5
f 750/1/5 742/1/5 741/1/5
f 750/2/5 741/2/5 749/2/5
f 751/2/5 743/2/5 742/2/5
f 751/1/5 742/1/5 750/1/5
f 752/2/5 743/2/5 751/2/5
f 753/2/5 745/2/5 744/2/5
f 754/1/5 746/1/5 745/1/5
f 754/2/5 745/2/5 753/2/5
f 755/2/5 747/2/5 746/2/5
f 755/1/5 746/1/5 754/1/5
f 756/2/5 747/2/5 755/2/5
f 761/2/5 758/2/5 757/2/5
f 762/2/5 758/2/5 761/2/5
f 763/2/5 760/2/5 759/2/5
f 764/2/5 760/2/5 763/2/5
f 765/2/6 766/2/6 771/2/6
f 766/1/6 767/1/6 772/1/6
f 771/2/6 766/2/6 772/2/6
f 772/1/6 767/1/6 773/1/6
f 768/1/6 769/1/6 774/1/6
f 769/2/6 770/2/6 775/2/6
f 774/1/6 769/1/6 775/1/6
f 775/2/6 770/2/6 776/2/6
f 777/2/6 778/2/6 780/2/6
f 780/2/6 778/2/6 781/2/6
f 779/2/6 780/2/6 783/2/6
f 781/2/6 782/2/6 783/2/6
f 780/2/6 781/2/6 783/2/6
f 783/2/6 782/2/6 784/2/6
f 779/2/6 783/2/6 785/2/6
f 783/1/6 784/1/6 786/1/6
f 785/2/6 783/2/6 786/2/6
f 786/1/6 784/1/6 787/1/6
f 787/1/6 784/1/6 788/1/6
f 784/2/6 782/2/6 789/2/6
f 788/1/6 784/1/6 789/1/6
f 789/2/6 782/2/6 790/2/6
f 786/1/6 787/1/6 791/1/6
f 788/1/6 789/1/6 792/1/6
f 786/1/6 791/1/6 793/1/6
f 791/1/6 792/1/6 793/1/6
f 792/1/6 789/1/6 794/1/6
f 793/1/6 792/1/6 794/1/6
f 779/2/6 785/2/6 795/2/6
f 795/2/6 785/2/6 796/2/6
f 790/2/6 782/2/6 797/2/6
f 797/2/6 782/2/6 798/2/6
f 796/2/6 797/2/6 799/2/6
f 799/2/6 797/2/6 800/2/6
f 801/2/6 802/2/6 805/2/6
f 803/2/6 804/2/6 806/2/6
f 801/2/6 805/2/6 807/2/6
f 805/2/6 806/2/6 807/2/6
f 806/2/6 804/2/6 808/2/6
f 807/2/6 806/2/6 808/2/6
f 809/3/6 810/3/6 811/3/6
f 811/3/6 810/3/6 812/3/6
f 809/3/6 811/3/6 813/3/6
f 811/2/6 812/2/6 814/2/6
f 813/3/6 811/3/6 814/3/6
f 812/3/6 810/3/6 815/3/6
f 814/2/6 812/2/6 815/2/6
f 815/3/6 810/3/6 816/3/6
f 814/2/6 815/2/6 817/2/6
f 817/2/6 815/2/6 818/2/6
f 819/2/6 820/2/6 823/2/6
f 823/2/6 820/2/6 824/2/6
f 821/2/6 822/2/6 825/2/6
f 825/2/6 822/2/6 826/2/6
