# MagicaVoxel @ Ephtracy

# group
g flower_3

# material
mtllib flower_3.mtl
usemtl palette

# normals
vn -1 0 0
vn 1 0 0
vn 0 0 1
vn 0 0 -1
vn 0 -1 0
vn 0 1 0

# texcoords
vt 0.583984 0.5
vt 0.837891 0.5
vt 0.904297 0.5

# verts
v -2.5 7 1.5
v -2.5 7 0.5
v -2.5 8 1.5
v -2.5 8 0.5
v -1.5 3 0.5
v -1.5 3 -0.5
v -1.5 4 0.5
v -1.5 4 -0.5
v -1.5 6 1.5
v -1.5 6 0.5
v -1.5 7 1.5
v -1.5 7 0.5
v -1.5 8 1.5
v -1.5 8 0.5
v -1.5 9 1.5
v -1.5 9 0.5
v -0.5 0 0.5
v -0.5 0 -0.5
v -0.5 3 0.5
v -0.5 3 -0.5
v -0.5 4 0.5
v -0.5 4 -0.5
v -0.5 5 1.5
v -0.5 5 0.5
v -0.5 5 -0.5
v -0.5 5 -1.5
v -0.5 6 1.5
v -0.5 6 0.5
v -0.5 6 -0.5
v -0.5 6 -1.5
v -0.5 8 0.5
v -0.5 8 -0.5
v -0.5 9 1.5
v -0.5 9 0.5
v -0.5 10 1.5
v -0.5 10 0.5
v 0.5 0 0.5
v 0.5 0 -0.5
v 0.5 2 0.5
v 0.5 2 -0.5
v 0.5 3 0.5
v 0.5 3 -0.5
v 0.5 5 1.5
v 0.5 5 0.5
v 0.5 5 -0.5
v 0.5 5 -1.5
v 0.5 6 1.5
v 0.5 6 0.5
v 0.5 6 -0.5
v 0.5 6 -1.5
v 0.5 8 0.5
v 0.5 8 -0.5
v 0.5 9 1.5
v 0.5 9 0.5
v 0.5 10 1.5
v 0.5 10 0.5
v 1.5 2 0.5
v 1.5 2 -0.5
v 1.5 3 0.5
v 1.5 3 -0.5
v 1.5 6 1.5
v 1.5 6 0.5
v 1.5 7 1.5
v 1.5 7 0.5
v 1.5 8 1.5
v 1.5 8 0.5
v 1.5 9 1.5
v 1.5 9 0.5
v 2.5 7 1.5
v 2.5 7 0.5
v 2.5 8 1.5
v 2.5 8 0.5
v -2.5 7 1.5
v -2.5 8 1.5
v -1.5 6 1.5
v -1.5 7 1.5
v -1.5 8 1.5
v -1.5 9 1.5
v -0.5 5 1.5
v -0.5 6 1.5
v -0.5 7 1.5
v -0.5 8 1.5
v -0.5 9 1.5
v -0.5 10 1.5
v 0.5 5 1.5
v 0.5 6 1.5
v 0.5 7 1.5
v 0.5 8 1.5
v 0.5 9 1.5
v 0.5 10 1.5
v 1.5 6 1.5
v 1.5 7 1.5
v 1.5 8 1.5
v 1.5 9 1.5
v 2.5 7 1.5
v 2.5 8 1.5
v -1.5 3 0.5
v -1.5 4 0.5
v -0.5 0 0.5
v -0.5 3 0.5
v -0.5 4 0.5
v -0.5 5 0.5
v 0.5 0 0.5
v 0.5 2 0.5
v 0.5 3 0.5
v 0.5 5 0.5
v 1.5 2 0.5
v 1.5 3 0.5
v -2.5 7 0.5
v -2.5 8 0.5
v -1.5 6 0.5
v -1.5 7 0.5
v -1.5 8 0.5
v -1.5 9 0.5
v -0.5 6 0.5
v -0.5 8 0.5
v -0.5 9 0.5
v -0.5 10 0.5
v 0.5 6 0.5
v 0.5 8 0.5
v 0.5 9 0.5
v 0.5 10 0.5
v 1.5 6 0.5
v 1.5 7 0.5
v 1.5 8 0.5
v 1.5 9 0.5
v 2.5 7 0.5
v 2.5 8 0.5
v -1.5 3 -0.5
v -1.5 4 -0.5
v -0.5 0 -0.5
v -0.5 3 -0.5
v -0.5 4 -0.5
v -0.5 5 -0.5
v -0.5 6 -0.5
v -0.5 8 -0.5
v 0.5 0 -0.5
v 0.5 2 -0.5
v 0.5 3 -0.5
v 0.5 5 -0.5
v 0.5 6 -0.5
v 0.5 8 -0.5
v 1.5 2 -0.5
v 1.5 3 -0.5
v -0.5 5 -1.5
v -0.5 6 -1.5
v 0.5 5 -1.5
v 0.5 6 -1.5
v -0.5 0 0.5
v 0.5 0 0.5
v -0.5 0 -0.5
v 0.5 0 -0.5
v 0.5 2 0.5
v 1.5 2 0.5
v 0.5 2 -0.5
v 1.5 2 -0.5
v -1.5 3 0.5
v -0.5 3 0.5
v -1.5 3 -0.5
v -0.5 3 -0.5
v -0.5 5 1.5
v 0.5 5 1.5
v -0.5 5 0.5
v 0.5 5 0.5
v -0.5 5 -0.5
v 0.5 5 -0.5
v -0.5 5 -1.5
v 0.5 5 -1.5
v -1.5 6 1.5
v -0.5 6 1.5
v 0.5 6 1.5
v 1.5 6 1.5
v -1.5 6 0.5
v -0.5 6 0.5
v 0.5 6 0.5
v 1.5 6 0.5
v -2.5 7 1.5
v -1.5 7 1.5
v 1.5 7 1.5
v 2.5 7 1.5
v -2.5 7 0.5
v -1.5 7 0.5
v 1.5 7 0.5
v 2.5 7 0.5
v 0.5 3 0.5
v 1.5 3 0.5
v 0.5 3 -0.5
v 1.5 3 -0.5
v -1.5 4 0.5
v -0.5 4 0.5
v -1.5 4 -0.5
v -0.5 4 -0.5
v -0.5 6 -0.5
v 0.5 6 -0.5
v -0.5 6 -1.5
v 0.5 6 -1.5
v -2.5 8 1.5
v -1.5 8 1.5
v 1.5 8 1.5
v 2.5 8 1.5
v -2.5 8 0.5
v -1.5 8 0.5
v -0.5 8 0.5
v 0.5 8 0.5
v 1.5 8 0.5
v 2.5 8 0.5
v -0.5 8 -0.5
v 0.5 8 -0.5
v -1.5 9 1.5
v -0.5 9 1.5
v 0.5 9 1.5
v 1.5 9 1.5
v -1.5 9 0.5
v -0.5 9 0.5
v 0.5 9 0.5
v 1.5 9 0.5
v -0.5 10 1.5
v 0.5 10 1.5
v -0.5 10 0.5
v 0.5 10 0.5

# faces
f 3/2/1 2/2/1 1/2/1
f 4/2/1 2/2/1 3/2/1
f 7/1/1 6/1/1 5/1/1
f 8/1/1 6/1/1 7/1/1
f 11/2/1 10/2/1 9/2/1
f 12/2/1 10/2/1 11/2/1
f 15/2/1 14/2/1 13/2/1
f 16/2/1 14/2/1 15/2/1
f 19/1/1 18/1/1 17/1/1
f 20/1/1 18/1/1 19/1/1
f 24/1/1 22/1/1 21/1/1
f 25/1/1 22/1/1 24/1/1
f 27/2/1 24/2/1 23/2/1
f 28/1/1 25/1/1 24/1/1
f 28/2/1 24/2/1 27/2/1
f 28/1/1 26/1/1 25/1/1
f 29/1/1 26/1/1 28/1/1
f 30/1/1 26/1/1 29/1/1
f 31/1/1 29/1/1 28/1/1
f 32/1/1 29/1/1 31/1/1
f 35/2/1 34/2/1 33/2/1
f 36/2/1 34/2/1 35/2/1
f 37/1/2 38/1/2 39/1/2
f 39/1/2 38/1/2 40/1/2
f 41/1/2 42/1/2 44/1/2
f 44/1/2 42/1/2 45/1/2
f 43/2/2 44/2/2 47/2/2
f 44/1/2 45/1/2 48/1/2
f 47/2/2 44/2/2 48/2/2
f 45/1/2 46/1/2 48/1/2
f 48/1/2 46/1/2 49/1/2
f 49/1/2 46/1/2 50/1/2
f 48/1/2 49/1/2 51/1/2
f 51/1/2 49/1/2 52/1/2
f 53/2/2 54/2/2 55/2/2
f 55/2/2 54/2/2 56/2/2
f 57/1/2 58/1/2 59/1/2
f 59/1/2 58/1/2 60/1/2
f 61/2/2 62/2/2 63/2/2
f 63/2/2 62/2/2 64/2/2
f 65/2/2 66/2/2 67/2/2
f 67/2/2 66/2/2 68/2/2
f 69/2/2 70/2/2 71/2/2
f 71/2/2 70/2/2 72/2/2
f 76/2/3 74/2/3 73/2/3
f 77/2/3 74/2/3 76/2/3
f 80/2/3 76/2/3 75/2/3
f 80/2/3 78/2/3 77/2/3
f 80/2/3 77/2/3 76/2/3
f 81/2/3 78/2/3 80/2/3
f 82/2/3 78/2/3 81/2/3
f 83/2/3 78/2/3 82/2/3
f 85/2/3 80/2/3 79/2/3
f 85/2/3 81/2/3 80/2/3
f 86/2/3 81/2/3 85/2/3
f 87/3/3 82/3/3 81/3/3
f 87/2/3 81/2/3 86/2/3
f 88/2/3 84/2/3 83/2/3
f 88/3/3 82/3/3 87/3/3
f 88/2/3 83/2/3 82/2/3
f 89/2/3 84/2/3 88/2/3
f 90/2/3 84/2/3 89/2/3
f 91/2/3 87/2/3 86/2/3
f 91/2/3 89/2/3 88/2/3
f 91/2/3 88/2/3 87/2/3
f 92/2/3 89/2/3 91/2/3
f 93/2/3 89/2/3 92/2/3
f 94/2/3 89/2/3 93/2/3
f 95/2/3 93/2/3 92/2/3
f 96/2/3 93/2/3 95/2/3
f 100/1/3 98/1/3 97/1/3
f 101/1/3 98/1/3 100/1/3
f 103/1/3 100/1/3 99/1/3
f 103/1/3 102/1/3 101/1/3
f 103/1/3 101/1/3 100/1/3
f 104/1/3 102/1/3 103/1/3
f 105/1/3 102/1/3 104/1/3
f 106/1/3 102/1/3 105/1/3
f 107/1/3 105/1/3 104/1/3
f 108/1/3 105/1/3 107/1/3
f 109/2/4 110/2/4 112/2/4
f 112/2/4 110/2/4 113/2/4
f 111/2/4 112/2/4 115/2/4
f 113/2/4 114/2/4 115/2/4
f 112/2/4 113/2/4 115/2/4
f 115/2/4 114/2/4 116/2/4
f 116/2/4 114/2/4 117/2/4
f 117/2/4 118/2/4 120/2/4
f 116/2/4 117/2/4 120/2/4
f 120/2/4 118/2/4 121/2/4
f 121/2/4 118/2/4 122/2/4
f 119/2/4 120/2/4 123/2/4
f 120/2/4 121/2/4 123/2/4
f 123/2/4 121/2/4 124/2/4
f 124/2/4 121/2/4 125/2/4
f 125/2/4 121/2/4 126/2/4
f 124/2/4 125/2/4 127/2/4
f 127/2/4 125/2/4 128/2/4
f 129/1/4 130/1/4 132/1/4
f 132/1/4 130/1/4 133/1/4
f 131/1/4 132/1/4 137/1/4
f 132/1/4 133/1/4 137/1/4
f 133/1/4 134/1/4 137/1/4
f 137/1/4 134/1/4 138/1/4
f 138/1/4 134/1/4 139/1/4
f 139/1/4 134/1/4 140/1/4
f 135/1/4 136/1/4 141/1/4
f 141/1/4 136/1/4 142/1/4
f 138/1/4 139/1/4 143/1/4
f 143/1/4 139/1/4 144/1/4
f 145/1/4 146/1/4 147/1/4
f 147/1/4 146/1/4 148/1/4
f 151/1/5 150/1/5 149/1/5
f 152/1/5 150/1/5 151/1/5
f 155/1/5 154/1/5 153/1/5
f 156/1/5 154/1/5 155/1/5
f 159/1/5 158/1/5 157/1/5
f 160/1/5 158/1/5 159/1/5
f 163/2/5 162/2/5 161/2/5
f 164/2/5 162/2/5 163/2/5
f 167/1/5 166/1/5 165/1/5
f 168/1/5 166/1/5 167/1/5
f 173/2/5 170/2/5 169/2/5
f 174/2/5 170/2/5 173/2/5
f 175/2/5 172/2/5 171/2/5
f 176/2/5 172/2/5 175/2/5
f 181/2/5 178/2/5 177/2/5
f 182/2/5 178/2/5 181/2/5
f 183/2/5 180/2/5 179/2/5
f 184/2/5 180/2/5 183/2/5
f 185/1/6 186/1/6 187/1/6
f 187/1/6 186/1/6 188/1/6
f 189/1/6 190/1/6 191/1/6
f 191/1/6 190/1/6 192/1/6
f 193/1/6 194/1/6 195/1/6
f 195/1/6 194/1/6 196/1/6
f 197/2/6 198/2/6 201/2/6
f 201/2/6 198/2/6 202/2/6
f 199/2/6 200/2/6 205/2/6
f 205/2/6 200/2/6 206/2/6
f 203/1/6 204/1/6 207/1/6
f 207/1/6 204/1/6 208/1/6
f 209/2/6 210/2/6 213/2/6
f 213/2/6 210/2/6 214/2/6
f 211/2/6 212/2/6 215/2/6
f 215/2/6 212/2/6 216/2/6
f 217/2/6 218/2/6 219/2/6
f 219/2/6 218/2/6 220/2/6
