# MagicaVoxel @ Ephtracy

# group
g Snow Rock

# material
mtllib Snow Rock.mtl
usemtl palette

# normals
vn -1 0 0
vn 1 0 0
vn 0 0 1
vn 0 0 -1
vn 0 -1 0
vn 0 1 0

# texcoords
vt 0.626953 0.5
vt 0.919922 0.5
vt 0.947266 0.5
vt 0.962891 0.5
vt 0.970703 0.5

# verts
v -4.5 0 4.5
v -4.5 0 1.5
v -4.5 0 -1.5
v -4.5 0 -2.5
v -4.5 1 2.5
v -4.5 1 1.5
v -4.5 1 -1.5
v -4.5 1 -2.5
v -4.5 2 4.5
v -4.5 2 3.5
v -4.5 2 2.5
v -4.5 2 1.5
v -4.5 2 0.5
v -4.5 2 -0.5
v -4.5 2 -2.5
v -4.5 3 3.5
v -4.5 3 1.5
v -4.5 3 0.5
v -4.5 3 -0.5
v -4.5 3 -2.5
v -3.5 0 -2.5
v -3.5 0 -3.5
v -3.5 1 -2.5
v -3.5 1 -3.5
v -3.5 2 -2.5
v -3.5 3 2.5
v -3.5 3 1.5
v -3.5 3 0.5
v -3.5 3 -0.5
v -3.5 3 -1.5
v -3.5 3 -2.5
v -3.5 3 -3.5
v -3.5 4 2.5
v -3.5 4 1.5
v -3.5 4 0.5
v -3.5 4 -0.5
v -3.5 4 -1.5
v -3.5 4 -2.5
v -3.5 5 0.5
v -3.5 5 -0.5
v -2.5 0 -3.5
v -2.5 0 -4.5
v -2.5 0 -5.5
v -2.5 1 4.5
v -2.5 1 3.5
v -2.5 1 -3.5
v -2.5 1 -4.5
v -2.5 1 -5.5
v -2.5 2 4.5
v -2.5 2 3.5
v -2.5 2 -3.5
v -2.5 2 -4.5
v -2.5 3 4.5
v -2.5 3 3.5
v -2.5 3 2.5
v -2.5 3 -2.5
v -2.5 3 -3.5
v -2.5 3 -4.5
v -2.5 4 3.5
v -2.5 4 2.5
v -2.5 4 1.5
v -2.5 4 0.5
v -2.5 4 -2.5
v -2.5 4 -3.5
v -2.5 5 1.5
v -2.5 5 0.5
v -1.5 4 -0.5
v -1.5 4 -1.5
v -1.5 4 -2.5
v -1.5 5 -0.5
v -1.5 5 -2.5
v -0.5 0 5.5
v -0.5 0 4.5
v -0.5 2 5.5
v -0.5 2 4.5
v -0.5 3 5.5
v -0.5 3 4.5
v -0.5 5 -0.5
v -0.5 5 -1.5
v -0.5 6 -0.5
v -0.5 6 -1.5
v 0.5 0 -5.5
v 0.5 0 -6.5
v 0.5 1 -5.5
v 0.5 1 -6.5
v 0.5 3 4.5
v 0.5 3 3.5
v 0.5 4 4.5
v 0.5 4 3.5
v 0.5 5 0.5
v 0.5 5 -0.5
v 0.5 6 0.5
v 0.5 6 -0.5
v 1.5 4 2.5
v 1.5 4 1.5
v 1.5 5 2.5
v 1.5 5 1.5
v -3.5 1 4.5
v -3.5 1 3.5
v -3.5 2 4.5
v -3.5 2 3.5
v 0.5 4 -1.5
v 0.5 4 -2.5
v 0.5 5 -0.5
v 0.5 5 -1.5
v 0.5 5 -2.5
v 0.5 6 -0.5
v 0.5 6 -1.5
v 1.5 0 -5.5
v 1.5 0 -6.5
v 1.5 1 -3.5
v 1.5 1 -4.5
v 1.5 1 -5.5
v 1.5 1 -6.5
v 1.5 2 -3.5
v 1.5 2 -4.5
v 1.5 3 -2.5
v 1.5 3 -3.5
v 1.5 3 -4.5
v 1.5 4 -2.5
v 1.5 4 -3.5
v 1.5 5 0.5
v 1.5 5 -0.5
v 1.5 6 0.5
v 1.5 6 -0.5
v 2.5 0 -3.5
v 2.5 0 -4.5
v 2.5 1 -3.5
v 2.5 1 -4.5
v 2.5 2 4.5
v 2.5 2 3.5
v 2.5 3 4.5
v 2.5 3 3.5
v 2.5 4 2.5
v 2.5 4 1.5
v 2.5 4 0.5
v 2.5 4 -0.5
v 2.5 4 -1.5
v 2.5 5 2.5
v 2.5 5 0.5
v 2.5 5 -0.5
v 2.5 5 -1.5
v 3.5 0 -2.5
v 3.5 0 -3.5
v 3.5 0 -4.5
v 3.5 0 -5.5
v 3.5 1 5.5
v 3.5 1 4.5
v 3.5 1 -2.5
v 3.5 1 -3.5
v 3.5 1 -4.5
v 3.5 1 -5.5
v 3.5 2 5.5
v 3.5 2 4.5
v 3.5 2 -2.5
v 3.5 2 -3.5
v 3.5 3 5.5
v 3.5 3 4.5
v 3.5 3 -1.5
v 3.5 3 -2.5
v 3.5 3 -3.5
v 3.5 4 0.5
v 3.5 4 -0.5
v 3.5 4 -1.5
v 3.5 4 -2.5
v 3.5 5 0.5
v 3.5 5 -0.5
v 4.5 0 -1.5
v 4.5 0 -2.5
v 4.5 1 2.5
v 4.5 1 1.5
v 4.5 2 3.5
v 4.5 2 2.5
v 4.5 2 1.5
v 4.5 2 0.5
v 4.5 2 -1.5
v 4.5 2 -2.5
v 4.5 3 4.5
v 4.5 3 3.5
v 4.5 3 2.5
v 4.5 3 0.5
v 4.5 3 -0.5
v 4.5 3 -1.5
v 4.5 3 -2.5
v 4.5 4 4.5
v 4.5 4 3.5
v 4.5 4 2.5
v 4.5 4 -0.5
v 4.5 4 -1.5
v 5.5 0 5.5
v 5.5 0 4.5
v 5.5 0 2.5
v 5.5 0 0.5
v 5.5 0 -0.5
v 5.5 0 -1.5
v 5.5 1 5.5
v 5.5 1 4.5
v 5.5 1 2.5
v 5.5 1 1.5
v 5.5 1 0.5
v 5.5 1 -0.5
v 5.5 2 1.5
v 5.5 2 0.5
v 5.5 2 -1.5
v 5.5 3 0.5
v 5.5 3 -1.5
v 6.5 0 4.5
v 6.5 0 2.5
v 6.5 0 0.5
v 6.5 0 -0.5
v 6.5 1 4.5
v 6.5 1 3.5
v 6.5 1 0.5
v 6.5 1 -0.5
v 6.5 2 4.5
v 6.5 2 3.5
v 6.5 2 2.5
v -0.5 0 5.5
v -0.5 2 5.5
v -0.5 3 5.5
v 0.5 2 5.5
v 0.5 3 5.5
v 1.5 1 5.5
v 1.5 2 5.5
v 1.5 3 5.5
v 3.5 0 5.5
v 3.5 1 5.5
v 3.5 2 5.5
v 3.5 3 5.5
v 4.5 0 5.5
v 4.5 1 5.5
v 5.5 0 5.5
v 5.5 1 5.5
v -4.5 0 4.5
v -4.5 2 4.5
v -3.5 1 4.5
v -3.5 2 4.5
v -2.5 1 4.5
v -2.5 2 4.5
v -2.5 3 4.5
v -0.5 0 4.5
v -0.5 2 4.5
v -0.5 3 4.5
v 0.5 3 4.5
v 0.5 4 4.5
v 1.5 3 4.5
v 3.5 1 4.5
v 3.5 2 4.5
v 3.5 3 4.5
v 4.5 1 4.5
v 4.5 2 4.5
v 4.5 3 4.5
v 4.5 4 4.5
v 5.5 0 4.5
v 5.5 1 4.5
v 5.5 2 4.5
v 6.5 0 4.5
v 6.5 1 4.5
v 6.5 2 4.5
v -4.5 2 3.5
v -4.5 3 3.5
v -3.5 1 3.5
v -3.5 2 3.5
v -3.5 3 3.5
v -2.5 1 3.5
v -2.5 2 3.5
v -2.5 3 3.5
v -2.5 4 3.5
v -1.5 3 3.5
v -1.5 4 3.5
v -0.5 3 3.5
v -0.5 4 3.5
v 0.5 3 3.5
v 0.5 4 3.5
v 2.5 2 3.5
v 2.5 3 3.5
v 3.5 2 3.5
v 4.5 2 3.5
v 4.5 3 3.5
v -3.5 3 2.5
v -3.5 4 2.5
v -2.5 3 2.5
v -2.5 4 2.5
v 1.5 4 2.5
v 1.5 5 2.5
v 2.5 4 2.5
v 2.5 5 2.5
v -2.5 4 1.5
v -2.5 5 1.5
v -1.5 4 1.5
v -1.5 5 1.5
v -0.5 4 1.5
v -0.5 5 1.5
v 0.5 4 1.5
v 0.5 5 1.5
v 1.5 4 1.5
v 1.5 5 1.5
v 4.5 1 1.5
v 4.5 2 1.5
v 5.5 1 1.5
v 5.5 2 1.5
v -3.5 4 0.5
v -3.5 5 0.5
v -2.5 4 0.5
v -2.5 5 0.5
v 0.5 5 0.5
v 0.5 6 0.5
v 1.5 5 0.5
v 1.5 6 0.5
v 2.5 4 0.5
v 2.5 5 0.5
v 3.5 4 0.5
v 3.5 5 0.5
v 4.5 2 0.5
v 4.5 3 0.5
v 5.5 0 0.5
v 5.5 1 0.5
v 5.5 2 0.5
v 5.5 3 0.5
v 6.5 0 0.5
v 6.5 1 0.5
v -0.5 5 -0.5
v -0.5 6 -0.5
v 0.5 5 -0.5
v 0.5 6 -0.5
v 2.5 0 -4.5
v 2.5 1 -4.5
v 3.5 0 -4.5
v 3.5 1 -4.5
v 2.5 2 4.5
v 2.5 3 4.5
v 3.5 2 4.5
v 3.5 3 4.5
v 4.5 1 2.5
v 4.5 2 2.5
v 5.5 0 2.5
v 5.5 1 2.5
v 5.5 2 2.5
v 6.5 0 2.5
v 6.5 2 2.5
v -3.5 4 -0.5
v -3.5 5 -0.5
v -2.5 4 -0.5
v -2.5 5 -0.5
v -1.5 4 -0.5
v -1.5 5 -0.5
v 0.5 5 -0.5
v 0.5 6 -0.5
v 1.5 5 -0.5
v 1.5 6 -0.5
v 2.5 4 -0.5
v 2.5 5 -0.5
v 3.5 4 -0.5
v 3.5 5 -0.5
v 5.5 0 -0.5
v 5.5 1 -0.5
v 6.5 0 -0.5
v 6.5 1 -0.5
v -0.5 5 -1.5
v -0.5 6 -1.5
v 0.5 4 -1.5
v 0.5 5 -1.5
v 0.5 6 -1.5
v 2.5 4 -1.5
v 2.5 5 -1.5
v 3.5 3 -1.5
v 3.5 4 -1.5
v 4.5 0 -1.5
v 4.5 2 -1.5
v 4.5 3 -1.5
v 4.5 4 -1.5
v 5.5 0 -1.5
v 5.5 2 -1.5
v 5.5 3 -1.5
v -4.5 0 -2.5
v -4.5 1 -2.5
v -4.5 2 -2.5
v -4.5 3 -2.5
v -3.5 0 -2.5
v -3.5 1 -2.5
v -3.5 2 -2.5
v -3.5 3 -2.5
v -3.5 4 -2.5
v -2.5 3 -2.5
v -2.5 4 -2.5
v -1.5 4 -2.5
v -1.5 5 -2.5
v 0.5 4 -2.5
v 0.5 5 -2.5
v 1.5 3 -2.5
v 1.5 4 -2.5
v 2.5 3 -2.5
v 2.5 4 -2.5
v 3.5 0 -2.5
v 3.5 1 -2.5
v 3.5 2 -2.5
v 3.5 3 -2.5
v 3.5 4 -2.5
v 4.5 0 -2.5
v 4.5 2 -2.5
v 4.5 3 -2.5
v -3.5 0 -3.5
v -3.5 1 -3.5
v -3.5 3 -3.5
v -2.5 0 -3.5
v -2.5 1 -3.5
v -2.5 2 -3.5
v -2.5 3 -3.5
v -2.5 4 -3.5
v -1.5 3 -3.5
v -1.5 4 -3.5
v -0.5 3 -3.5
v 0.5 3 -3.5
v 0.5 4 -3.5
v 1.5 1 -3.5
v 1.5 2 -3.5
v 1.5 3 -3.5
v 1.5 4 -3.5
v 2.5 0 -3.5
v 2.5 1 -3.5
v 2.5 2 -3.5
v 2.5 3 -3.5
v 3.5 0 -3.5
v 3.5 1 -3.5
v 3.5 2 -3.5
v 3.5 3 -3.5
v -2.5 1 -4.5
v -2.5 2 -4.5
v -2.5 3 -4.5
v -1.5 1 -4.5
v -1.5 2 -4.5
v -1.5 3 -4.5
v -0.5 1 -4.5
v -0.5 3 -4.5
v 0.5 2 -4.5
v 0.5 3 -4.5
v 1.5 1 -4.5
v 1.5 2 -4.5
v 1.5 3 -4.5
v -2.5 0 -5.5
v -2.5 1 -5.5
v -0.5 0 -5.5
v -0.5 1 -5.5
v 0.5 0 -5.5
v 0.5 1 -5.5
v 1.5 0 -5.5
v 1.5 1 -5.5
v 2.5 0 -5.5
v 2.5 1 -5.5
v 3.5 0 -5.5
v 3.5 1 -5.5
v 0.5 0 -6.5
v 0.5 1 -6.5
v 1.5 0 -6.5
v 1.5 1 -6.5
v -0.5 0 5.5
v 3.5 0 5.5
v 4.5 0 5.5
v 5.5 0 5.5
v -4.5 0 4.5
v -0.5 0 4.5
v 3.5 0 4.5
v 4.5 0 4.5
v 5.5 0 4.5
v 6.5 0 4.5
v -1.5 0 3.5
v 2.5 0 3.5
v -2.5 0 2.5
v -1.5 0 2.5
v -0.5 0 2.5
v 2.5 0 2.5
v 4.5 0 2.5
v 5.5 0 2.5
v 6.5 0 2.5
v -4.5 0 1.5
v -3.5 0 1.5
v -1.5 0 1.5
v -0.5 0 1.5
v 0.5 0 1.5
v 4.5 0 1.5
v -3.5 0 0.5
v -2.5 0 0.5
v -1.5 0 0.5
v 0.5 0 0.5
v 1.5 0 0.5
v 3.5 0 0.5
v 5.5 0 0.5
v 6.5 0 0.5
v -3.5 0 -0.5
v -2.5 0 -0.5
v 1.5 0 -0.5
v 3.5 0 -0.5
v 5.5 0 -0.5
v 6.5 0 -0.5
v -4.5 0 -1.5
v -3.5 0 -1.5
v -2.5 0 -1.5
v -1.5 0 -1.5
v 2.5 0 -1.5
v 3.5 0 -1.5
v 4.5 0 -1.5
v 5.5 0 -1.5
v -4.5 0 -2.5
v -3.5 0 -2.5
v 0.5 0 -2.5
v 2.5 0 -2.5
v 3.5 0 -2.5
v 4.5 0 -2.5
v -3.5 0 -3.5
v -2.5 0 -3.5
v -1.5 0 -3.5
v 0.5 0 -3.5
v 2.5 0 -3.5
v 3.5 0 -3.5
v -2.5 0 -4.5
v -0.5 0 -4.5
v 2.5 0 -4.5
v 3.5 0 -4.5
v -2.5 0 -5.5
v -0.5 0 -5.5
v 0.5 0 -5.5
v 1.5 0 -5.5
v 2.5 0 -5.5
v 3.5 0 -5.5
v 0.5 0 -6.5
v 1.5 0 -6.5
v 2.5 3 4.5
v 3.5 3 4.5
v 4.5 3 4.5
v 2.5 3 3.5
v 4.5 3 3.5
v 3.5 1 5.5
v 4.5 1 5.5
v 5.5 1 5.5
v -3.5 1 4.5
v -2.5 1 4.5
v 3.5 1 4.5
v 4.5 1 4.5
v 5.5 1 4.5
v -3.5 1 3.5
v -2.5 1 3.5
v 4.5 1 2.5
v 5.5 1 2.5
v 4.5 1 1.5
v 5.5 1 1.5
v 5.5 1 0.5
v 6.5 1 0.5
v 5.5 1 -0.5
v 6.5 1 -0.5
v 1.5 1 -3.5
v 2.5 1 -3.5
v -2.5 1 -4.5
v -1.5 1 -4.5
v -0.5 1 -4.5
v 1.5 1 -4.5
v 2.5 1 -4.5
v 3.5 1 -4.5
v -2.5 1 -5.5
v -0.5 1 -5.5
v 0.5 1 -5.5
v 1.5 1 -5.5
v 2.5 1 -5.5
v 3.5 1 -5.5
v 0.5 1 -6.5
v 1.5 1 -6.5
v -4.5 2 4.5
v -3.5 2 4.5
v 2.5 2 4.5
v 3.5 2 4.5
v 4.5 2 4.5
v 5.5 2 4.5
v 6.5 2 4.5
v -4.5 2 3.5
v -3.5 2 3.5
v 2.5 2 3.5
v 3.5 2 3.5
v 4.5 2 3.5
v 5.5 2 3.5
v 6.5 2 3.5
v 4.5 2 2.5
v 5.5 2 2.5
v 6.5 2 2.5
v 4.5 2 1.5
v 5.5 2 1.5
v 4.5 2 0.5
v 5.5 2 0.5
v -0.5 3 5.5
v 0.5 3 5.5
v 1.5 3 5.5
v 3.5 3 5.5
v -2.5 3 4.5
v -0.5 3 4.5
v 0.5 3 4.5
v 1.5 3 4.5
v 3.5 3 4.5
v -4.5 3 3.5
v -3.5 3 3.5
v -2.5 3 3.5
v -1.5 3 3.5
v -0.5 3 3.5
v 0.5 3 3.5
v -3.5 3 2.5
v -2.5 3 2.5
v -4.5 3 1.5
v -3.5 3 1.5
v -4.5 3 0.5
v -3.5 3 0.5
v 4.5 3 0.5
v 5.5 3 0.5
v -4.5 3 -0.5
v -3.5 3 -0.5
v 4.5 3 -0.5
v -3.5 3 -1.5
v 3.5 3 -1.5
v 4.5 3 -1.5
v 5.5 3 -1.5
v -4.5 3 -2.5
v -3.5 3 -2.5
v -2.5 3 -2.5
v 1.5 3 -2.5
v 2.5 3 -2.5
v 3.5 3 -2.5
v 4.5 3 -2.5
v -3.5 3 -3.5
v -2.5 3 -3.5
v -1.5 3 -3.5
v -0.5 3 -3.5
v 0.5 3 -3.5
v 1.5 3 -3.5
v 2.5 3 -3.5
v 3.5 3 -3.5
v -2.5 3 -4.5
v -1.5 3 -4.5
v -0.5 3 -4.5
v 0.5 3 -4.5
v 1.5 3 -4.5
v 0.5 4 4.5
v 4.5 4 4.5
v -2.5 4 3.5
v -1.5 4 3.5
v -0.5 4 3.5
v 0.5 4 3.5
v 4.5 4 3.5
v -3.5 4 2.5
v -2.5 4 2.5
v -0.5 4 2.5
v 0.5 4 2.5
v 1.5 4 2.5
v 2.5 4 2.5
v 4.5 4 2.5
v -3.5 4 1.5
v -2.5 4 1.5
v -1.5 4 1.5
v -0.5 4 1.5
v 0.5 4 1.5
v 1.5 4 1.5
v 2.5 4 1.5
v 3.5 4 1.5
v -3.5 4 0.5
v -2.5 4 0.5
v 2.5 4 0.5
v 3.5 4 0.5
v -3.5 4 -0.5
v -2.5 4 -0.5
v -1.5 4 -0.5
v 2.5 4 -0.5
v 3.5 4 -0.5
v 4.5 4 -0.5
v -3.5 4 -1.5
v -2.5 4 -1.5
v -1.5 4 -1.5
v 0.5 4 -1.5
v 2.5 4 -1.5
v 3.5 4 -1.5
v 4.5 4 -1.5
v -3.5 4 -2.5
v -2.5 4 -2.5
v -1.5 4 -2.5
v 0.5 4 -2.5
v 1.5 4 -2.5
v 2.5 4 -2.5
v 3.5 4 -2.5
v -2.5 4 -3.5
v -1.5 4 -3.5
v 0.5 4 -3.5
v 1.5 4 -3.5
v 1.5 5 2.5
v 2.5 5 2.5
v -2.5 5 1.5
v -1.5 5 1.5
v -0.5 5 1.5
v 0.5 5 1.5
v 1.5 5 1.5
v -3.5 5 0.5
v -2.5 5 0.5
v -1.5 5 0.5
v -0.5 5 0.5
v 0.5 5 0.5
v 1.5 5 0.5
v 2.5 5 0.5
v 3.5 5 0.5
v -3.5 5 -0.5
v -2.5 5 -0.5
v -1.5 5 -0.5
v -0.5 5 -0.5
v 0.5 5 -0.5
v 1.5 5 -0.5
v 2.5 5 -0.5
v 3.5 5 -0.5
v -0.5 5 -1.5
v 0.5 5 -1.5
v 2.5 5 -1.5
v -1.5 5 -2.5
v 0.5 5 -2.5
v 0.5 6 0.5
v 1.5 6 0.5
v -0.5 6 -0.5
v 0.5 6 -0.5
v 1.5 6 -0.5
v -0.5 6 -1.5
v 0.5 6 -1.5

# faces
f 5/3/1 2/3/1 1/3/1
f 6/1/1 3/1/1 2/1/1
f 6/3/1 2/3/1 5/3/1
f 7/3/1 4/3/1 3/3/1
f 7/1/1 3/1/1 6/1/1
f 8/3/1 4/3/1 7/3/1
f 9/3/1 5/3/1 1/3/1
f 10/3/1 5/3/1 9/3/1
f 11/1/1 6/1/1 5/1/1
f 11/3/1 5/3/1 10/3/1
f 11/1/1 7/1/1 6/1/1
f 11/1/1 8/1/1 7/1/1
f 12/1/1 8/1/1 11/1/1
f 13/1/1 8/1/1 12/1/1
f 14/1/1 8/1/1 13/1/1
f 15/1/1 8/1/1 14/1/1
f 16/3/1 11/3/1 10/3/1
f 16/3/1 12/3/1 11/3/1
f 17/4/1 13/4/1 12/4/1
f 17/3/1 12/3/1 16/3/1
f 18/2/1 14/2/1 13/2/1
f 18/4/1 13/4/1 17/4/1
f 19/4/1 15/4/1 14/4/1
f 19/2/1 14/2/1 18/2/1
f 20/4/1 15/4/1 19/4/1
f 23/3/1 22/3/1 21/3/1
f 24/3/1 22/3/1 23/3/1
f 25/4/1 24/4/1 23/4/1
f 31/4/1 24/4/1 25/4/1
f 32/4/1 24/4/1 31/4/1
f 33/3/1 27/3/1 26/3/1
f 34/1/1 30/1/1 29/1/1
f 34/3/1 27/3/1 33/3/1
f 34/1/1 28/1/1 27/1/1
f 34/1/1 29/1/1 28/1/1
f 35/1/1 30/1/1 34/1/1
f 36/1/1 30/1/1 35/1/1
f 37/4/1 31/4/1 30/4/1
f 37/1/1 30/1/1 36/1/1
f 38/4/1 31/4/1 37/4/1
f 39/2/1 36/2/1 35/2/1
f 40/2/1 36/2/1 39/2/1
f 46/3/1 42/3/1 41/3/1
f 47/1/1 43/1/1 42/1/1
f 47/3/1 42/3/1 46/3/1
f 48/1/1 43/1/1 47/1/1
f 49/3/1 45/3/1 44/3/1
f 50/3/1 45/3/1 49/3/1
f 51/1/1 47/1/1 46/1/1
f 52/1/1 47/1/1 51/1/1
f 53/1/1 50/1/1 49/1/1
f 54/1/1 50/1/1 53/1/1
f 57/4/1 52/4/1 51/4/1
f 58/4/1 52/4/1 57/4/1
f 59/4/1 55/4/1 54/4/1
f 60/4/1 55/4/1 59/4/1
f 63/3/1 57/3/1 56/3/1
f 64/3/1 57/3/1 63/3/1
f 65/4/1 62/4/1 61/4/1
f 66/4/1 62/4/1 65/4/1
f 70/2/1 68/2/1 67/2/1
f 70/2/1 69/2/1 68/2/1
f 71/2/1 69/2/1 70/2/1
f 74/3/1 73/3/1 72/3/1
f 75/3/1 73/3/1 74/3/1
f 76/1/1 75/1/1 74/1/1
f 77/1/1 75/1/1 76/1/1
f 80/2/1 79/2/1 78/2/1
f 81/2/1 79/2/1 80/2/1
f 84/3/1 83/3/1 82/3/1
f 85/3/1 83/3/1 84/3/1
f 88/1/1 87/1/1 86/1/1
f 89/1/1 87/1/1 88/1/1
f 92/2/1 91/2/1 90/2/1
f 93/2/1 91/2/1 92/2/1
f 96/5/1 95/5/1 94/5/1
f 97/5/1 95/5/1 96/5/1
f 98/3/2 99/3/2 100/3/2
f 100/3/2 99/3/2 101/3/2
f 102/2/2 103/2/2 105/2/2
f 105/2/2 103/2/2 106/2/2
f 104/2/2 105/2/2 107/2/2
f 107/2/2 105/2/2 108/2/2
f 109/3/2 110/3/2 113/3/2
f 113/3/2 110/3/2 114/3/2
f 111/1/2 112/1/2 115/1/2
f 115/1/2 112/1/2 116/1/2
f 115/3/2 116/3/2 118/3/2
f 118/3/2 116/3/2 119/3/2
f 117/4/2 118/4/2 120/4/2
f 120/4/2 118/4/2 121/4/2
f 122/2/2 123/2/2 124/2/2
f 124/2/2 123/2/2 125/2/2
f 126/3/2 127/3/2 128/3/2
f 128/3/2 127/3/2 129/3/2
f 130/1/2 131/1/2 132/1/2
f 132/1/2 131/1/2 133/1/2
f 134/5/2 135/5/2 139/5/2
f 135/5/2 136/5/2 139/5/2
f 139/5/2 136/5/2 140/5/2
f 137/4/2 138/4/2 141/4/2
f 141/4/2 138/4/2 142/4/2
f 143/3/2 144/3/2 149/3/2
f 149/3/2 144/3/2 150/3/2
f 145/1/2 146/1/2 151/1/2
f 151/1/2 146/1/2 152/1/2
f 147/1/2 148/1/2 153/1/2
f 153/1/2 148/1/2 154/1/2
f 149/4/2 150/4/2 155/4/2
f 155/4/2 150/4/2 156/4/2
f 153/2/2 154/2/2 157/2/2
f 157/2/2 154/2/2 158/2/2
f 155/2/2 156/2/2 160/2/2
f 160/2/2 156/2/2 161/2/2
f 159/3/2 160/3/2 164/3/2
f 164/3/2 160/3/2 165/3/2
f 162/4/2 163/4/2 166/4/2
f 166/4/2 163/4/2 167/4/2
f 170/3/2 171/3/2 173/3/2
f 173/3/2 171/3/2 174/3/2
f 168/1/2 169/1/2 176/1/2
f 176/1/2 169/1/2 177/1/2
f 172/1/2 173/1/2 179/1/2
f 174/3/2 175/3/2 180/3/2
f 173/3/2 174/3/2 180/3/2
f 179/1/2 173/1/2 180/1/2
f 180/3/2 175/3/2 181/3/2
f 176/2/2 177/2/2 183/2/2
f 183/2/2 177/2/2 184/2/2
f 178/1/2 179/1/2 185/1/2
f 179/2/2 180/2/2 186/2/2
f 185/1/2 179/1/2 186/1/2
f 181/4/2 182/4/2 187/4/2
f 186/2/2 180/2/2 187/2/2
f 180/4/2 181/4/2 187/4/2
f 182/3/2 183/3/2 188/3/2
f 187/4/2 182/4/2 188/4/2
f 188/3/2 183/3/2 189/3/2
f 190/1/2 191/1/2 196/1/2
f 196/1/2 191/1/2 197/1/2
f 192/1/2 193/1/2 198/1/2
f 198/1/2 193/1/2 199/1/2
f 199/1/2 193/1/2 200/1/2
f 194/3/2 195/3/2 201/3/2
f 199/3/2 200/3/2 202/3/2
f 200/3/2 201/3/2 202/3/2
f 202/3/2 201/3/2 203/3/2
f 201/3/2 195/3/2 204/3/2
f 203/3/2 201/3/2 204/3/2
f 203/5/2 204/5/2 205/5/2
f 205/5/2 204/5/2 206/5/2
f 207/3/2 208/3/2 211/3/2
f 211/3/2 208/3/2 212/3/2
f 209/1/2 210/1/2 213/1/2
f 213/1/2 210/1/2 214/1/2
f 211/1/2 212/1/2 215/1/2
f 212/3/2 208/3/2 216/3/2
f 215/1/2 212/1/2 216/1/2
f 216/3/2 208/3/2 217/3/2
f 221/3/3 219/3/3 218/3/3
f 221/1/3 220/1/3 219/1/3
f 222/1/3 220/1/3 221/1/3
f 223/3/3 221/3/3 218/3/3
f 224/4/3 222/4/3 221/4/3
f 224/3/3 221/3/3 223/3/3
f 225/4/3 222/4/3 224/4/3
f 226/3/3 223/3/3 218/3/3
f 227/1/3 224/1/3 223/1/3
f 227/3/3 223/3/3 226/3/3
f 228/2/3 225/2/3 224/2/3
f 228/1/3 224/1/3 227/1/3
f 229/2/3 225/2/3 228/2/3
f 230/4/3 227/4/3 226/4/3
f 231/4/3 227/4/3 230/4/3
f 232/1/3 231/1/3 230/1/3
f 233/1/3 231/1/3 232/1/3
f 236/3/3 235/3/3 234/3/3
f 237/3/3 235/3/3 236/3/3
f 238/3/3 236/3/3 234/3/3
f 241/3/3 239/3/3 238/3/3
f 241/3/3 238/3/3 234/3/3
f 242/1/3 240/1/3 239/1/3
f 242/3/3 239/3/3 241/3/3
f 243/1/3 240/1/3 242/1/3
f 246/1/3 245/1/3 244/1/3
f 249/1/3 245/1/3 246/1/3
f 250/2/3 248/2/3 247/2/3
f 251/2/3 248/2/3 250/2/3
f 252/1/3 245/1/3 249/1/3
f 253/1/3 245/1/3 252/1/3
f 255/4/3 251/4/3 250/4/3
f 256/4/3 251/4/3 255/4/3
f 257/3/3 255/3/3 254/3/3
f 258/1/3 256/1/3 255/1/3
f 258/3/3 255/3/3 257/3/3
f 259/1/3 256/1/3 258/1/3
f 263/3/3 261/3/3 260/3/3
f 264/3/3 261/3/3 263/3/3
f 265/1/3 263/1/3 262/1/3
f 265/1/3 264/1/3 263/1/3
f 266/1/3 264/1/3 265/1/3
f 267/1/3 264/1/3 266/1/3
f 269/4/3 268/4/3 267/4/3
f 270/4/3 268/4/3 269/4/3
f 271/2/3 270/2/3 269/2/3
f 272/2/3 270/2/3 271/2/3
f 273/4/3 272/4/3 271/4/3
f 274/4/3 272/4/3 273/4/3
f 277/1/3 276/1/3 275/1/3
f 278/1/3 276/1/3 277/1/3
f 279/1/3 276/1/3 278/1/3
f 282/3/3 281/3/3 280/3/3
f 283/3/3 281/3/3 282/3/3
f 286/5/3 285/5/3 284/5/3
f 287/5/3 285/5/3 286/5/3
f 290/4/3 289/4/3 288/4/3
f 291/4/3 289/4/3 290/4/3
f 292/2/3 291/2/3 290/2/3
f 293/2/3 291/2/3 292/2/3
f 294/4/3 293/4/3 292/4/3
f 295/4/3 293/4/3 294/4/3
f 296/5/3 295/5/3 294/5/3
f 297/5/3 295/5/3 296/5/3
f 300/3/3 299/3/3 298/3/3
f 301/3/3 299/3/3 300/3/3
f 304/2/3 303/2/3 302/2/3
f 305/2/3 303/2/3 304/2/3
f 308/2/3 307/2/3 306/2/3
f 309/2/3 307/2/3 308/2/3
f 312/4/3 311/4/3 310/4/3
f 313/4/3 311/4/3 312/4/3
f 318/5/3 315/5/3 314/5/3
f 319/5/3 315/5/3 318/5/3
f 320/1/3 317/1/3 316/1/3
f 321/1/3 317/1/3 320/1/3
f 324/2/3 323/2/3 322/2/3
f 325/2/3 323/2/3 324/2/3
f 328/1/3 327/1/3 326/1/3
f 329/1/3 327/1/3 328/1/3
f 330/2/4 331/2/4 332/2/4
f 332/2/4 331/2/4 333/2/4
f 334/1/4 335/1/4 337/1/4
f 337/1/4 335/1/4 338/1/4
f 336/3/4 337/3/4 339/3/4
f 337/3/4 338/3/4 339/3/4
f 339/3/4 338/3/4 340/3/4
f 341/2/4 342/2/4 343/2/4
f 343/2/4 342/2/4 344/2/4
f 343/4/4 344/4/4 345/4/4
f 345/4/4 344/4/4 346/4/4
f 347/2/4 348/2/4 349/2/4
f 349/2/4 348/2/4 350/2/4
f 351/4/4 352/4/4 353/4/4
f 353/4/4 352/4/4 354/4/4
f 355/1/4 356/1/4 357/1/4
f 357/1/4 356/1/4 358/1/4
f 359/2/4 360/2/4 362/2/4
f 362/2/4 360/2/4 363/2/4
f 361/4/4 362/4/4 364/4/4
f 364/4/4 362/4/4 365/4/4
f 366/3/4 367/3/4 370/3/4
f 370/3/4 367/3/4 371/3/4
f 368/3/4 369/3/4 372/3/4
f 369/5/4 370/5/4 373/5/4
f 372/3/4 369/3/4 373/3/4
f 373/5/4 370/5/4 374/5/4
f 375/3/4 376/3/4 379/3/4
f 376/1/4 377/1/4 380/1/4
f 379/3/4 376/3/4 380/3/4
f 377/4/4 378/4/4 381/4/4
f 380/1/4 377/1/4 381/1/4
f 381/4/4 378/4/4 382/4/4
f 382/4/4 383/4/4 384/4/4
f 384/4/4 383/4/4 385/4/4
f 386/2/4 387/2/4 388/2/4
f 388/2/4 387/2/4 389/2/4
f 390/1/4 391/1/4 392/1/4
f 392/1/4 391/1/4 393/1/4
f 392/3/4 393/3/4 397/3/4
f 397/3/4 393/3/4 398/3/4
f 395/1/4 396/1/4 399/1/4
f 394/1/4 395/1/4 399/1/4
f 396/2/4 397/2/4 400/2/4
f 399/1/4 396/1/4 400/1/4
f 400/2/4 397/2/4 401/2/4
f 402/3/4 403/3/4 405/3/4
f 403/4/4 404/4/4 406/4/4
f 405/3/4 403/3/4 406/3/4
f 406/4/4 404/4/4 407/4/4
f 407/4/4 404/4/4 408/4/4
f 408/3/4 409/3/4 410/3/4
f 410/3/4 409/3/4 411/3/4
f 410/1/4 411/1/4 412/1/4
f 412/1/4 411/1/4 413/1/4
f 413/1/4 411/1/4 414/1/4
f 413/4/4 414/4/4 417/4/4
f 417/4/4 414/4/4 418/4/4
f 415/3/4 416/3/4 420/3/4
f 416/4/4 417/4/4 421/4/4
f 420/3/4 416/3/4 421/3/4
f 421/4/4 417/4/4 422/4/4
f 419/3/4 420/3/4 423/3/4
f 420/4/4 421/4/4 424/4/4
f 423/3/4 420/3/4 424/3/4
f 421/2/4 422/2/4 425/2/4
f 424/4/4 421/4/4 425/4/4
f 425/2/4 422/2/4 426/2/4
f 427/1/4 428/1/4 430/1/4
f 428/4/4 429/4/4 431/4/4
f 430/1/4 428/1/4 431/1/4
f 431/4/4 429/4/4 432/4/4
f 430/3/4 431/3/4 433/3/4
f 431/3/4 432/3/4 433/3/4
f 433/3/4 432/3/4 434/3/4
f 433/1/4 434/1/4 435/1/4
f 435/1/4 434/1/4 436/1/4
f 433/1/4 435/1/4 437/1/4
f 435/3/4 436/3/4 438/3/4
f 437/1/4 435/1/4 438/1/4
f 438/3/4 436/3/4 439/3/4
f 440/1/4 441/1/4 442/1/4
f 442/1/4 441/1/4 443/1/4
f 442/3/4 443/3/4 444/3/4
f 444/3/4 443/3/4 445/3/4
f 446/3/4 447/3/4 448/3/4
f 448/3/4 447/3/4 449/3/4
f 448/1/4 449/1/4 450/1/4
f 450/1/4 449/1/4 451/1/4
f 452/3/4 453/3/4 454/3/4
f 454/3/4 453/3/4 455/3/4
f 461/3/5 457/3/5 456/3/5
f 462/4/5 458/4/5 457/4/5
f 462/3/5 457/3/5 461/3/5
f 463/1/5 459/1/5 458/1/5
f 463/4/5 458/4/5 462/4/5
f 464/1/5 459/1/5 463/1/5
f 466/3/5 462/3/5 461/3/5
f 466/3/5 465/3/5 464/3/5
f 466/3/5 464/3/5 463/3/5
f 466/3/5 463/3/5 462/3/5
f 466/3/5 461/3/5 460/3/5
f 467/3/5 465/3/5 466/3/5
f 468/3/5 466/3/5 460/3/5
f 469/1/5 467/1/5 466/1/5
f 469/3/5 466/3/5 468/3/5
f 470/1/5 467/1/5 469/1/5
f 471/3/5 465/3/5 467/3/5
f 471/1/5 467/1/5 470/1/5
f 472/3/5 465/3/5 471/3/5
f 473/3/5 465/3/5 472/3/5
f 474/3/5 465/3/5 473/3/5
f 475/3/5 468/3/5 460/3/5
f 476/3/5 468/3/5 475/3/5
f 477/1/5 470/1/5 469/1/5
f 477/1/5 469/1/5 468/1/5
f 478/3/5 471/3/5 470/3/5
f 478/1/5 470/1/5 477/1/5
f 478/3/5 472/3/5 471/3/5
f 479/3/5 472/3/5 478/3/5
f 480/1/5 473/1/5 472/1/5
f 480/3/5 472/3/5 479/3/5
f 481/3/5 468/3/5 476/3/5
f 481/1/5 476/1/5 475/1/5
f 482/1/5 477/1/5 468/1/5
f 482/3/5 468/3/5 481/3/5
f 483/3/5 479/3/5 478/3/5
f 483/1/5 477/1/5 482/1/5
f 483/3/5 478/3/5 477/3/5
f 484/1/5 480/1/5 479/1/5
f 484/3/5 479/3/5 483/3/5
f 485/1/5 480/1/5 484/1/5
f 486/1/5 480/1/5 485/1/5
f 487/1/5 473/1/5 480/1/5
f 487/1/5 480/1/5 486/1/5
f 489/1/5 483/1/5 482/1/5
f 489/1/5 481/1/5 475/1/5
f 489/1/5 482/1/5 481/1/5
f 489/1/5 485/1/5 484/1/5
f 489/1/5 484/1/5 483/1/5
f 490/1/5 485/1/5 489/1/5
f 491/3/5 486/3/5 485/3/5
f 491/1/5 485/1/5 490/1/5
f 492/1/5 488/1/5 487/1/5
f 492/3/5 486/3/5 491/3/5
f 492/1/5 487/1/5 486/1/5
f 493/1/5 488/1/5 492/1/5
f 494/1/5 488/1/5 493/1/5
f 495/1/5 489/1/5 475/1/5
f 496/3/5 490/3/5 489/3/5
f 496/1/5 489/1/5 495/1/5
f 497/1/5 491/1/5 490/1/5
f 497/3/5 490/3/5 496/3/5
f 497/1/5 492/1/5 491/1/5
f 498/1/5 492/1/5 497/1/5
f 499/1/5 492/1/5 498/1/5
f 500/3/5 493/3/5 492/3/5
f 500/1/5 492/1/5 499/1/5
f 501/3/5 493/3/5 500/3/5
f 502/3/5 493/3/5 501/3/5
f 503/3/5 496/3/5 495/3/5
f 503/3/5 497/3/5 496/3/5
f 503/3/5 498/3/5 497/3/5
f 504/3/5 498/3/5 503/3/5
f 505/1/5 499/1/5 498/1/5
f 506/3/5 500/3/5 499/3/5
f 506/1/5 499/1/5 505/1/5
f 507/1/5 501/1/5 500/1/5
f 507/3/5 500/3/5 506/3/5
f 508/1/5 501/1/5 507/1/5
f 509/3/5 498/3/5 504/3/5
f 510/3/5 498/3/5 509/3/5
f 511/1/5 505/1/5 498/1/5
f 511/3/5 498/3/5 510/3/5
f 512/3/5 506/3/5 505/3/5
f 512/1/5 505/1/5 511/1/5
f 512/3/5 507/3/5 506/3/5
f 513/3/5 507/3/5 512/3/5
f 514/3/5 507/3/5 513/3/5
f 515/3/5 511/3/5 510/3/5
f 515/3/5 513/3/5 512/3/5
f 515/3/5 512/3/5 511/3/5
f 516/3/5 513/3/5 515/3/5
f 517/3/5 513/3/5 516/3/5
f 519/1/5 516/1/5 515/1/5
f 520/3/5 517/3/5 516/3/5
f 520/1/5 516/1/5 519/1/5
f 521/3/5 517/3/5 520/3/5
f 522/3/5 517/3/5 521/3/5
f 523/1/5 518/1/5 517/1/5
f 523/3/5 517/3/5 522/3/5
f 524/1/5 518/1/5 523/1/5
f 525/3/5 522/3/5 521/3/5
f 526/3/5 522/3/5 525/3/5
f 530/1/5 528/1/5 527/1/5
f 530/1/5 529/1/5 528/1/5
f 531/1/5 529/1/5 530/1/5
f 532/4/6 533/4/6 537/4/6
f 533/1/6 534/1/6 538/1/6
f 537/4/6 533/4/6 538/4/6
f 538/1/6 534/1/6 539/1/6
f 535/3/6 536/3/6 540/3/6
f 540/3/6 536/3/6 541/3/6
f 542/1/6 543/1/6 544/1/6
f 544/1/6 543/1/6 545/1/6
f 546/1/6 547/1/6 548/1/6
f 548/1/6 547/1/6 549/1/6
f 550/3/6 551/3/6 555/3/6
f 555/3/6 551/3/6 556/3/6
f 553/1/6 554/1/6 558/1/6
f 552/1/6 553/1/6 558/1/6
f 555/3/6 556/3/6 559/3/6
f 558/1/6 554/1/6 559/1/6
f 554/3/6 555/3/6 559/3/6
f 559/3/6 556/3/6 560/3/6
f 560/3/6 556/3/6 561/3/6
f 556/1/6 557/1/6 562/1/6
f 561/3/6 556/3/6 562/3/6
f 562/1/6 557/1/6 563/1/6
f 560/3/6 561/3/6 564/3/6
f 564/3/6 561/3/6 565/3/6
f 566/3/6 567/3/6 573/3/6
f 573/3/6 567/3/6 574/3/6
f 568/3/6 569/3/6 575/3/6
f 569/2/6 570/2/6 576/2/6
f 575/3/6 569/3/6 576/3/6
f 570/4/6 571/4/6 577/4/6
f 576/2/6 570/2/6 577/2/6
f 571/1/6 572/1/6 578/1/6
f 577/4/6 571/4/6 578/4/6
f 578/1/6 572/1/6 579/1/6
f 577/1/6 578/1/6 580/1/6
f 578/3/6 579/3/6 581/3/6
f 580/1/6 578/1/6 581/1/6
f 581/3/6 579/3/6 582/3/6
f 583/3/6 584/3/6 585/3/6
f 585/3/6 584/3/6 586/3/6
f 587/1/6 588/1/6 592/1/6
f 588/4/6 589/4/6 593/4/6
f 592/1/6 588/1/6 593/1/6
f 589/2/6 590/2/6 594/2/6
f 593/4/6 589/4/6 594/4/6
f 594/2/6 590/2/6 595/2/6
f 591/1/6 592/1/6 598/1/6
f 598/1/6 592/1/6 599/1/6
f 592/3/6 593/3/6 600/3/6
f 599/1/6 592/1/6 600/1/6
f 600/3/6 593/3/6 601/3/6
f 596/3/6 597/3/6 602/3/6
f 597/1/6 598/1/6 602/1/6
f 602/1/6 598/1/6 603/1/6
f 596/3/6 602/3/6 604/3/6
f 604/3/6 602/3/6 605/3/6
f 604/4/6 605/4/6 606/4/6
f 606/4/6 605/4/6 607/4/6
f 606/2/6 607/2/6 610/2/6
f 610/2/6 607/2/6 611/2/6
f 608/5/6 609/5/6 612/5/6
f 610/4/6 611/4/6 613/4/6
f 612/5/6 609/5/6 615/5/6
f 615/5/6 609/5/6 616/5/6
f 610/4/6 613/4/6 617/4/6
f 617/4/6 613/4/6 618/4/6
f 614/2/6 615/2/6 622/2/6
f 622/2/6 615/2/6 623/2/6
f 618/4/6 619/4/6 624/4/6
f 624/4/6 619/4/6 625/4/6
f 620/4/6 621/4/6 629/4/6
f 621/2/6 622/2/6 630/2/6
f 629/4/6 621/4/6 630/4/6
f 630/2/6 622/2/6 631/2/6
f 625/4/6 626/4/6 632/4/6
f 626/3/6 627/3/6 633/3/6
f 632/4/6 626/4/6 633/4/6
f 627/1/6 628/1/6 634/1/6
f 633/3/6 627/3/6 634/3/6
f 628/3/6 629/3/6 635/3/6
f 634/1/6 628/1/6 635/1/6
f 635/3/6 629/3/6 636/3/6
f 637/1/6 638/1/6 642/1/6
f 642/1/6 638/1/6 643/1/6
f 639/4/6 640/4/6 645/4/6
f 640/2/6 641/2/6 646/2/6
f 641/4/6 642/4/6 646/4/6
f 642/2/6 643/2/6 647/2/6
f 646/4/6 642/4/6 647/4/6
f 647/2/6 643/2/6 648/2/6
f 648/2/6 643/2/6 649/2/6
f 649/2/6 643/2/6 650/2/6
f 644/3/6 645/3/6 651/3/6
f 645/4/6 640/4/6 652/4/6
f 651/3/6 645/3/6 652/3/6
f 640/2/6 646/2/6 653/2/6
f 652/4/6 640/4/6 653/4/6
f 646/2/6 647/2/6 653/2/6
f 647/2/6 648/2/6 653/2/6
f 653/2/6 648/2/6 654/2/6
f 654/2/6 648/2/6 655/2/6
f 655/2/6 648/2/6 656/2/6
f 649/4/6 650/4/6 657/4/6
f 657/4/6 650/4/6 658/4/6
f 651/1/6 652/1/6 659/1/6
f 659/1/6 652/1/6 660/1/6
f 657/2/6 658/2/6 661/2/6
f 658/4/6 650/4/6 662/4/6
f 661/2/6 658/2/6 662/2/6
f 662/4/6 650/4/6 667/4/6
f 667/4/6 650/4/6 668/4/6
f 664/1/6 665/1/6 669/1/6
f 663/1/6 664/1/6 669/1/6
f 669/1/6 665/1/6 670/1/6
f 670/1/6 665/1/6 671/1/6
f 667/3/6 668/3/6 673/3/6
f 666/3/6 667/3/6 673/3/6
f 673/3/6 668/3/6 674/3/6
f 674/3/6 668/3/6 675/3/6
f 669/4/6 670/4/6 676/4/6
f 670/3/6 671/3/6 677/3/6
f 676/4/6 670/4/6 677/4/6
f 677/3/6 671/3/6 678/3/6
f 672/1/6 673/1/6 679/1/6
f 679/1/6 673/1/6 680/1/6
f 673/3/6 674/3/6 681/3/6
f 680/1/6 673/1/6 681/1/6
f 681/3/6 674/3/6 682/3/6
f 677/3/6 678/3/6 683/3/6
f 678/1/6 679/1/6 684/1/6
f 683/3/6 678/3/6 684/3/6
f 679/4/6 680/4/6 685/4/6
f 684/1/6 679/1/6 685/1/6
f 685/4/6 680/4/6 686/4/6
f 687/5/6 688/5/6 693/5/6
f 689/4/6 690/4/6 695/4/6
f 690/2/6 691/2/6 696/2/6
f 695/4/6 690/4/6 696/4/6
f 691/4/6 692/4/6 697/4/6
f 696/2/6 691/2/6 697/2/6
f 692/5/6 693/5/6 698/5/6
f 697/4/6 692/4/6 698/4/6
f 693/5/6 688/5/6 699/5/6
f 698/5/6 693/5/6 699/5/6
f 699/5/6 688/5/6 700/5/6
f 694/2/6 695/2/6 702/2/6
f 695/4/6 696/4/6 703/4/6
f 702/2/6 695/2/6 703/2/6
f 696/4/6 697/4/6 703/4/6
f 703/4/6 697/4/6 704/4/6
f 697/2/6 698/2/6 705/2/6
f 704/4/6 697/4/6 705/4/6
f 705/2/6 698/2/6 706/2/6
f 699/2/6 700/2/6 707/2/6
f 700/4/6 701/4/6 708/4/6
f 707/2/6 700/2/6 708/2/6
f 708/4/6 701/4/6 709/4/6
f 704/2/6 705/2/6 710/2/6
f 706/4/6 707/4/6 711/4/6
f 707/4/6 708/4/6 711/4/6
f 711/4/6 708/4/6 712/4/6
f 704/2/6 710/2/6 713/2/6
f 710/2/6 711/2/6 713/2/6
f 713/2/6 711/2/6 714/2/6
f 715/2/6 716/2/6 718/2/6
f 718/2/6 716/2/6 719/2/6
f 717/2/6 718/2/6 720/2/6
f 720/2/6 718/2/6 721/2/6
